<svg width="762" height="1152" viewBox="0 0 762 1152" fill="none" xmlns="http://www.w3.org/2000/svg">
<rect x="608.513" y="0.5" width="77.1714" height="76.0116" transform="rotate(90 608.513 0.5)" stroke="#4D4D6C" stroke-opacity="0.3"/>
<rect x="608.513" y="77.6426" width="76.1429" height="76.0116" transform="rotate(90 608.513 77.6426)" stroke="#4D4D6C" stroke-opacity="0.3"/>
<rect x="608.512" y="153.896" width="77.2222" height="76" transform="rotate(90 608.512 153.896)" stroke="#4D4D6C" stroke-opacity="0.3"/>
<rect x="608.513" y="230.9" width="76.1429" height="76.0116" transform="rotate(90 608.513 230.9)" stroke="#4D4D6C" stroke-opacity="0.3"/>
<rect x="608.513" y="307.015" width="77.1714" height="76.0116" transform="rotate(90 608.513 307.015)" stroke="#4D4D6C" stroke-opacity="0.3"/>
<rect x="608.513" y="384.157" width="77.1714" height="76.0116" transform="rotate(90 608.513 384.157)" stroke="#4D4D6C" stroke-opacity="0.3"/>
<rect x="608.513" y="461.3" width="76.1429" height="76.0116" transform="rotate(90 608.513 461.3)" stroke="#4D4D6C" stroke-opacity="0.3"/>
<rect x="608.513" y="537.414" width="77.1714" height="76.0116" transform="rotate(90 608.513 537.414)" stroke="#4D4D6C" stroke-opacity="0.3"/>
<rect x="608.513" y="614.557" width="76.1429" height="76.0116" transform="rotate(90 608.513 614.557)" stroke="#4D4D6C" stroke-opacity="0.3"/>
<rect x="608.513" y="690.671" width="77.1714" height="76.0116" transform="rotate(90 608.513 690.671)" stroke="#4D4D6C" stroke-opacity="0.3"/>
<rect x="608.513" y="767.814" width="77.1714" height="76.0116" transform="rotate(90 608.513 767.814)" stroke="#4D4D6C" stroke-opacity="0.3"/>
<rect x="608.513" y="844.957" width="76.1429" height="76.0116" transform="rotate(90 608.513 844.957)" stroke="#4D4D6C" stroke-opacity="0.3"/>
<rect x="608.513" y="921.071" width="77.1714" height="76.0116" transform="rotate(90 608.513 921.071)" stroke="#4D4D6C" stroke-opacity="0.3"/>
<rect x="608.513" y="998.087" width="77.1714" height="76.0116" transform="rotate(90 608.513 998.087)" stroke="#4D4D6C" stroke-opacity="0.3"/>
<rect x="532.515" y="0.5" width="77.1714" height="76.0116" transform="rotate(90 532.515 0.5)" stroke="#4D4D6C" stroke-opacity="0.3"/>
<rect x="532.515" y="77.6426" width="76.1429" height="76.0116" transform="rotate(90 532.515 77.6426)" stroke="#4D4D6C" stroke-opacity="0.3"/>
<rect x="532.515" y="153.757" width="77.1714" height="76.0116" transform="rotate(90 532.515 153.757)" stroke="#4D4D6C" stroke-opacity="0.3"/>
<rect x="532.515" y="230.9" width="76.1429" height="76.0116" transform="rotate(90 532.515 230.9)" stroke="#4D4D6C" stroke-opacity="0.3"/>
<rect x="532.515" y="307.015" width="77.1714" height="76.0116" transform="rotate(90 532.515 307.015)" stroke="#4D4D6C" stroke-opacity="0.3"/>
<rect x="532.515" y="384.157" width="77.1714" height="76.0116" transform="rotate(90 532.515 384.157)" stroke="#4D4D6C" stroke-opacity="0.3"/>
<rect x="532.515" y="461.3" width="76.1429" height="76.0116" transform="rotate(90 532.515 461.3)" stroke="#4D4D6C" stroke-opacity="0.3"/>
<rect x="532.515" y="537.414" width="77.1714" height="76.0116" transform="rotate(90 532.515 537.414)" stroke="#4D4D6C" stroke-opacity="0.3"/>
<rect x="532.515" y="614.557" width="76.1429" height="76.0116" transform="rotate(90 532.515 614.557)" stroke="#4D4D6C" stroke-opacity="0.3"/>
<rect x="532.515" y="690.671" width="77.1714" height="76.0116" transform="rotate(90 532.515 690.671)" stroke="#4D4D6C" stroke-opacity="0.3"/>
<rect x="532.515" y="767.814" width="77.1714" height="76.0116" transform="rotate(90 532.515 767.814)" stroke="#4D4D6C" stroke-opacity="0.3"/>
<rect x="532.515" y="844.957" width="76.1429" height="76.0116" transform="rotate(90 532.515 844.957)" stroke="#4D4D6C" stroke-opacity="0.3"/>
<rect x="532.515" y="921.071" width="77.1714" height="76.0116" transform="rotate(90 532.515 921.071)" stroke="#4D4D6C" stroke-opacity="0.3"/>
<rect x="532.515" y="998.214" width="76.1429" height="76.0116" transform="rotate(90 532.515 998.214)" stroke="#4D4D6C" stroke-opacity="0.3"/>
<rect x="456.517" y="0.5" width="77.1714" height="76.0116" transform="rotate(90 456.517 0.5)" stroke="#4D4D6C" stroke-opacity="0.3"/>
<rect x="456.517" y="153.757" width="77.1714" height="76.0116" transform="rotate(90 456.517 153.757)" stroke="#4D4D6C" stroke-opacity="0.3"/>
<rect x="456.517" y="230.9" width="76.1429" height="76.0116" transform="rotate(90 456.517 230.9)" stroke="#4D4D6C" stroke-opacity="0.3"/>
<rect x="456.517" y="307.015" width="77.1714" height="76.0116" transform="rotate(90 456.517 307.015)" stroke="#4D4D6C" stroke-opacity="0.3"/>
<rect x="456.517" y="384.157" width="77.1714" height="76.0116" transform="rotate(90 456.517 384.157)" stroke="#4D4D6C" stroke-opacity="0.3"/>
<rect x="456.517" y="461.3" width="76.1429" height="76.0116" transform="rotate(90 456.517 461.3)" stroke="#4D4D6C" stroke-opacity="0.3"/>
<rect x="456.517" y="537.414" width="77.1714" height="76.0116" transform="rotate(90 456.517 537.414)" stroke="#4D4D6C" stroke-opacity="0.3"/>
<rect x="456.517" y="614.557" width="76.1429" height="76.0116" transform="rotate(90 456.517 614.557)" stroke="#4D4D6C" stroke-opacity="0.3"/>
<rect x="456.517" y="690.671" width="77.1714" height="76.0116" transform="rotate(90 456.517 690.671)" stroke="#4D4D6C" stroke-opacity="0.3"/>
<rect x="456.517" y="767.814" width="77.1714" height="76.0116" transform="rotate(90 456.517 767.814)" stroke="#4D4D6C" stroke-opacity="0.3"/>
<rect x="456.517" y="844.957" width="76.1429" height="76.0116" transform="rotate(90 456.517 844.957)" stroke="#4D4D6C" stroke-opacity="0.3"/>
<rect x="456.517" y="998.214" width="76.1429" height="76.0116" transform="rotate(90 456.517 998.214)" stroke="#4D4D6C" stroke-opacity="0.3"/>
<rect x="456.517" y="1074.33" width="77.1714" height="76.0116" transform="rotate(90 456.517 1074.33)" stroke="#4D4D6C" stroke-opacity="0.3"/>
<rect x="380.518" y="0.5" width="77.1714" height="76.0116" transform="rotate(90 380.518 0.5)" stroke="#4D4D6C" stroke-opacity="0.3"/>
<rect x="380.518" y="77.6426" width="76.1429" height="76.0116" transform="rotate(90 380.518 77.6426)" stroke="#4D4D6C" stroke-opacity="0.3"/>
<rect x="380.518" y="153.757" width="77.1714" height="76.0116" transform="rotate(90 380.518 153.757)" stroke="#4D4D6C" stroke-opacity="0.3"/>
<rect x="380.518" y="230.9" width="76.1429" height="76.0116" transform="rotate(90 380.518 230.9)" stroke="#4D4D6C" stroke-opacity="0.3"/>
<rect x="380.518" y="307.015" width="77.1714" height="76.0116" transform="rotate(90 380.518 307.015)" stroke="#4D4D6C" stroke-opacity="0.3"/>
<rect x="380.518" y="384.157" width="77.1714" height="76.0116" transform="rotate(90 380.518 384.157)" stroke="#4D4D6C" stroke-opacity="0.3"/>
<rect x="380.518" y="461.3" width="76.1429" height="76.0116" transform="rotate(90 380.518 461.3)" stroke="#4D4D6C" stroke-opacity="0.3"/>
<rect x="380.518" y="537.415" width="77.1714" height="76.0116" transform="rotate(90 380.518 537.415)" stroke="#4D4D6C" stroke-opacity="0.3"/>
<rect x="304.512" y="537.415" width="77.1714" height="76.0116" transform="rotate(90 304.512 537.415)" stroke="#4D4D6C" stroke-opacity="0.3"/>
<rect x="380.518" y="614.558" width="76.1429" height="76.0116" transform="rotate(90 380.518 614.558)" stroke="#4D4D6C" stroke-opacity="0.3"/>
<rect x="304.512" y="614.557" width="76.1429" height="76.0116" transform="rotate(90 304.512 614.557)" stroke="#4D4D6C" stroke-opacity="0.3"/>
<rect x="380.518" y="690.672" width="77.1714" height="76.0116" transform="rotate(90 380.518 690.672)" stroke="#4D4D6C" stroke-opacity="0.3"/>
<rect x="304.512" y="690.672" width="77.1714" height="76.0116" transform="rotate(90 304.512 690.672)" stroke="#4D4D6C" stroke-opacity="0.3"/>
<rect x="380.518" y="767.814" width="77.1714" height="76.0116" transform="rotate(90 380.518 767.814)" stroke="#4D4D6C" stroke-opacity="0.3"/>
<rect x="380.518" y="844.957" width="76.1429" height="76.0116" transform="rotate(90 380.518 844.957)" stroke="#4D4D6C" stroke-opacity="0.3"/>
<rect x="380.518" y="921.071" width="77.1714" height="76.0116" transform="rotate(90 380.518 921.071)" stroke="#4D4D6C" stroke-opacity="0.3"/>
<rect x="380.518" y="998.214" width="76.1429" height="76.0116" transform="rotate(90 380.518 998.214)" stroke="#4D4D6C" stroke-opacity="0.3"/>
<rect x="304.52" y="0.5" width="77.1714" height="76.0116" transform="rotate(90 304.52 0.5)" stroke="#4D4D6C" stroke-opacity="0.3"/>
<rect x="228.512" y="0.5" width="77.1714" height="76.0116" transform="rotate(90 228.512 0.5)" stroke="#4D4D6C" stroke-opacity="0.3"/>
<rect x="304.52" y="77.6426" width="76.1429" height="76.0116" transform="rotate(90 304.52 77.6426)" stroke="#4D4D6C" stroke-opacity="0.3"/>
<rect x="304.52" y="153.757" width="77.1714" height="76.0116" transform="rotate(90 304.52 153.757)" stroke="#4D4D6C" stroke-opacity="0.3"/>
<rect x="304.52" y="230.9" width="76.1429" height="76.0116" transform="rotate(90 304.52 230.9)" stroke="#4D4D6C" stroke-opacity="0.3"/>
<rect x="304.52" y="384.157" width="77.1714" height="76.0116" transform="rotate(90 304.52 384.157)" stroke="#4D4D6C" stroke-opacity="0.3"/>
<rect x="304.52" y="461.3" width="76.1429" height="76.0116" transform="rotate(90 304.52 461.3)" stroke="#4D4D6C" stroke-opacity="0.3"/>
<rect x="304.52" y="767.814" width="77.1714" height="76.0116" transform="rotate(90 304.52 767.814)" stroke="#4D4D6C" stroke-opacity="0.3"/>
<rect x="304.52" y="844.957" width="76.1429" height="76.0116" transform="rotate(90 304.52 844.957)" stroke="#4D4D6C" stroke-opacity="0.3"/>
<rect x="304.52" y="921.071" width="77.1714" height="76.0116" transform="rotate(90 304.52 921.071)" stroke="#4D4D6C" stroke-opacity="0.3"/>
<rect x="304.52" y="998.214" width="76.1429" height="76.0116" transform="rotate(90 304.52 998.214)" stroke="#4D4D6C" stroke-opacity="0.3"/>
<rect x="228.522" y="77.6426" width="76.1429" height="76.0116" transform="rotate(90 228.522 77.6426)" stroke="#4D4D6C" stroke-opacity="0.3"/>
<rect x="228.522" y="153.757" width="77.1714" height="76.0116" transform="rotate(90 228.522 153.757)" stroke="#4D4D6C" stroke-opacity="0.3"/>
<rect x="228.522" y="230.899" width="76.1429" height="76.0116" transform="rotate(90 228.522 230.899)" stroke="#4D4D6C" stroke-opacity="0.3"/>
<rect x="228.522" y="307.014" width="77.1714" height="76.0116" transform="rotate(90 228.522 307.014)" stroke="#4D4D6C" stroke-opacity="0.3"/>
<rect x="228.522" y="384.157" width="77.1714" height="76.0116" transform="rotate(90 228.522 384.157)" stroke="#4D4D6C" stroke-opacity="0.3"/>
<rect x="228.522" y="461.3" width="76.1429" height="76.0116" transform="rotate(90 228.522 461.3)" stroke="#4D4D6C" stroke-opacity="0.3"/>
<rect x="228.522" y="537.414" width="77.1714" height="76.0116" transform="rotate(90 228.522 537.414)" stroke="#4D4D6C" stroke-opacity="0.3"/>
<rect x="228.522" y="614.557" width="76.1429" height="76.0116" transform="rotate(90 228.522 614.557)" stroke="#4D4D6C" stroke-opacity="0.3"/>
<rect x="228.522" y="690.671" width="77.1714" height="76.0116" transform="rotate(90 228.522 690.671)" stroke="#4D4D6C" stroke-opacity="0.3"/>
<rect x="228.522" y="767.813" width="77.1714" height="76.0116" transform="rotate(90 228.522 767.813)" stroke="#4D4D6C" stroke-opacity="0.3"/>
<rect x="228.522" y="844.957" width="76.1429" height="76.0116" transform="rotate(90 228.522 844.957)" stroke="#4D4D6C" stroke-opacity="0.3"/>
<rect x="228.522" y="998.214" width="76.1429" height="76.0116" transform="rotate(90 228.522 998.214)" stroke="#4D4D6C" stroke-opacity="0.3"/>
<rect x="228.512" y="920.881" width="77.2222" height="76" transform="rotate(90 228.512 920.881)" stroke="#4D4D6C" stroke-opacity="0.3"/>
<rect x="152.523" y="77.6426" width="76.1429" height="76.0116" transform="rotate(90 152.523 77.6426)" stroke="#4D4D6C" stroke-opacity="0.3"/>
<rect x="152.523" y="1.51562" width="76.1429" height="76.0116" transform="rotate(90 152.523 1.51562)" stroke="#4D4D6C" stroke-opacity="0.3"/>
<rect x="152.523" y="153.757" width="77.1714" height="76.0116" transform="rotate(90 152.523 153.757)" stroke="#4D4D6C" stroke-opacity="0.3"/>
<rect x="152.523" y="230.899" width="76.1429" height="76.0116" transform="rotate(90 152.523 230.899)" stroke="#4D4D6C" stroke-opacity="0.3"/>
<rect x="152.523" y="307.014" width="77.1714" height="76.0116" transform="rotate(90 152.523 307.014)" stroke="#4D4D6C" stroke-opacity="0.3"/>
<rect x="152.523" y="461.3" width="76.1429" height="76.0116" transform="rotate(90 152.523 461.3)" stroke="#4D4D6C" stroke-opacity="0.3"/>
<rect x="152.523" y="537.414" width="77.1714" height="76.0116" transform="rotate(90 152.523 537.414)" stroke="#4D4D6C" stroke-opacity="0.3"/>
<rect x="152.523" y="614.557" width="76.1429" height="76.0116" transform="rotate(90 152.523 614.557)" stroke="#4D4D6C" stroke-opacity="0.3"/>
<rect x="152.523" y="690.671" width="77.1714" height="76.0116" transform="rotate(90 152.523 690.671)" stroke="#4D4D6C" stroke-opacity="0.3"/>
<rect x="152.523" y="767.814" width="77.1714" height="76.0116" transform="rotate(90 152.523 767.814)" stroke="#4D4D6C" stroke-opacity="0.3"/>
<rect x="152.523" y="920.881" width="77.1714" height="76.0116" transform="rotate(90 152.523 920.881)" stroke="#4D4D6C" stroke-opacity="0.3"/>
<rect x="152.523" y="844.957" width="76.1429" height="76.0116" transform="rotate(90 152.523 844.957)" stroke="#4D4D6C" stroke-opacity="0.3"/>
<rect x="152.523" y="998.024" width="76.1429" height="76.0116" transform="rotate(90 152.523 998.024)" stroke="#4D4D6C" stroke-opacity="0.3"/>
<path d="M152.523 384.157L152.523 461.329L76.5118 461.329L76.5118 384.157L152.523 384.157Z" stroke="#4D4D6C" stroke-opacity="0.3"/>
<rect x="76.5117" y="77.6426" width="76.1429" height="76.0116" transform="rotate(90 76.5117 77.6426)" stroke="#4D4D6C" stroke-opacity="0.3"/>
<rect x="76.5117" y="1.51562" width="76.1429" height="76.0116" transform="rotate(90 76.5117 1.51562)" stroke="#4D4D6C" stroke-opacity="0.3"/>
<rect x="76.5117" y="153.757" width="77.1714" height="76.0116" transform="rotate(90 76.5117 153.757)" stroke="#4D4D6C" stroke-opacity="0.3"/>
<rect x="76.5117" y="230.899" width="76.1429" height="76.0116" transform="rotate(90 76.5117 230.899)" stroke="#4D4D6C" stroke-opacity="0.3"/>
<rect x="76.5117" y="307.014" width="77.1714" height="76.0116" transform="rotate(90 76.5117 307.014)" stroke="#4D4D6C" stroke-opacity="0.3"/>
<rect x="76.5117" y="461.3" width="76.1429" height="76.0116" transform="rotate(90 76.5117 461.3)" stroke="#4D4D6C" stroke-opacity="0.3"/>
<rect x="76.5117" y="537.414" width="77.1714" height="76.0116" transform="rotate(90 76.5117 537.414)" stroke="#4D4D6C" stroke-opacity="0.3"/>
<rect x="76.5117" y="614.557" width="76.1429" height="76.0116" transform="rotate(90 76.5117 614.557)" stroke="#4D4D6C" stroke-opacity="0.3"/>
<rect x="76.5117" y="690.671" width="77.1714" height="76.0116" transform="rotate(90 76.5117 690.671)" stroke="#4D4D6C" stroke-opacity="0.3"/>
<rect x="76.5117" y="767.814" width="77.1714" height="76.0116" transform="rotate(90 76.5117 767.814)" stroke="#4D4D6C" stroke-opacity="0.3"/>
<rect x="76.5117" y="920.881" width="77.1714" height="76.0116" transform="rotate(90 76.5117 920.881)" stroke="#4D4D6C" stroke-opacity="0.3"/>
<rect x="76.5117" y="844.957" width="76.1429" height="76.0116" transform="rotate(90 76.5117 844.957)" stroke="#4D4D6C" stroke-opacity="0.3"/>
<rect x="76.5117" y="998.024" width="76.1429" height="76.0116" transform="rotate(90 76.5117 998.024)" stroke="#4D4D6C" stroke-opacity="0.3"/>
<path d="M76.5117 384.157L76.5117 461.329L0.500081 461.329L0.500084 384.157L76.5117 384.157Z" stroke="#4D4D6C" stroke-opacity="0.3"/>
<rect x="608.512" y="1075.29" width="76.2064" height="76" transform="rotate(90 608.512 1075.29)" stroke="#4D4D6C" stroke-opacity="0.3"/>
<rect x="532.512" y="1074.28" width="77.1714" height="76.0116" transform="rotate(90 532.512 1074.28)" stroke="#4D4D6C" stroke-opacity="0.3"/>
<rect x="456.517" y="1074.28" width="77.1714" height="76.0116" transform="rotate(90 456.517 1074.28)" stroke="#4D4D6C" stroke-opacity="0.3"/>
<rect x="380.518" y="1074.28" width="77.1714" height="76.0116" transform="rotate(90 380.518 1074.28)" stroke="#4D4D6C" stroke-opacity="0.3"/>
<rect x="304.512" y="1074.28" width="77.1714" height="76.0116" transform="rotate(90 304.512 1074.28)" stroke="#4D4D6C" stroke-opacity="0.3"/>
<rect x="228.522" y="1074.28" width="77.1714" height="76.0116" transform="rotate(90 228.522 1074.28)" stroke="#4D4D6C" stroke-opacity="0.3"/>
<rect x="152.523" y="1074.28" width="77.1714" height="76.0116" transform="rotate(90 152.523 1074.28)" stroke="#4D4D6C" stroke-opacity="0.3"/>
<rect x="76.5117" y="1074.28" width="77.1714" height="76.0116" transform="rotate(90 76.5117 1074.28)" stroke="#4D4D6C" stroke-opacity="0.3"/>
<rect x="684.512" y="0.5" width="77.1714" height="76.0116" transform="rotate(90 684.512 0.5)" stroke="#4D4D6C" stroke-opacity="0.3"/>
<rect x="684.512" y="77.6426" width="76.1429" height="76.0116" transform="rotate(90 684.512 77.6426)" stroke="#4D4D6C" stroke-opacity="0.3"/>
<rect x="684.51" y="153.896" width="77.2222" height="76" transform="rotate(90 684.51 153.896)" stroke="#4D4D6C" stroke-opacity="0.3"/>
<rect x="684.512" y="230.9" width="76.1429" height="76.0116" transform="rotate(90 684.512 230.9)" stroke="#4D4D6C" stroke-opacity="0.3"/>
<rect x="684.512" y="307.015" width="77.1714" height="76.0116" transform="rotate(90 684.512 307.015)" stroke="#4D4D6C" stroke-opacity="0.3"/>
<rect x="684.512" y="384.157" width="77.1714" height="76.0116" transform="rotate(90 684.512 384.157)" stroke="#4D4D6C" stroke-opacity="0.3"/>
<rect x="684.512" y="461.3" width="76.1429" height="76.0116" transform="rotate(90 684.512 461.3)" stroke="#4D4D6C" stroke-opacity="0.3"/>
<rect x="684.512" y="537.414" width="77.1714" height="76.0116" transform="rotate(90 684.512 537.414)" stroke="#4D4D6C" stroke-opacity="0.3"/>
<rect x="684.512" y="614.557" width="76.1429" height="76.0116" transform="rotate(90 684.512 614.557)" stroke="#4D4D6C" stroke-opacity="0.3"/>
<rect x="684.512" y="690.671" width="77.1714" height="76.0116" transform="rotate(90 684.512 690.671)" stroke="#4D4D6C" stroke-opacity="0.3"/>
<rect x="684.512" y="767.814" width="77.1714" height="76.0116" transform="rotate(90 684.512 767.814)" stroke="#4D4D6C" stroke-opacity="0.3"/>
<rect x="684.512" y="844.957" width="76.1429" height="76.0116" transform="rotate(90 684.512 844.957)" stroke="#4D4D6C" stroke-opacity="0.3"/>
<rect x="684.512" y="921.071" width="77.1714" height="76.0116" transform="rotate(90 684.512 921.071)" stroke="#4D4D6C" stroke-opacity="0.3"/>
<rect x="684.512" y="998.087" width="77.1714" height="76.0116" transform="rotate(90 684.512 998.087)" stroke="#4D4D6C" stroke-opacity="0.3"/>
<rect x="684.512" y="1075.29" width="76.2064" height="76" transform="rotate(90 684.512 1075.29)" stroke="#4D4D6C" stroke-opacity="0.3"/>
<rect x="760.512" y="0.5" width="77.1714" height="76.0116" transform="rotate(90 760.512 0.5)" stroke="#4D4D6C" stroke-opacity="0.3"/>
<rect x="760.512" y="77.6426" width="76.1429" height="76.0116" transform="rotate(90 760.512 77.6426)" stroke="#4D4D6C" stroke-opacity="0.3"/>
<rect x="760.51" y="153.896" width="77.2222" height="76" transform="rotate(90 760.51 153.896)" stroke="#4D4D6C" stroke-opacity="0.3"/>
<rect x="760.512" y="230.9" width="76.1429" height="76.0116" transform="rotate(90 760.512 230.9)" stroke="#4D4D6C" stroke-opacity="0.3"/>
<rect x="760.512" y="307.014" width="77.1714" height="76.0116" transform="rotate(90 760.512 307.014)" stroke="#4D4D6C" stroke-opacity="0.3"/>
<rect x="760.512" y="384.156" width="77.1714" height="76.0116" transform="rotate(90 760.512 384.156)" stroke="#4D4D6C" stroke-opacity="0.3"/>
<rect x="760.512" y="461.3" width="76.1429" height="76.0116" transform="rotate(90 760.512 461.3)" stroke="#4D4D6C" stroke-opacity="0.3"/>
<rect x="760.512" y="537.415" width="77.1714" height="76.0116" transform="rotate(90 760.512 537.415)" stroke="#4D4D6C" stroke-opacity="0.3"/>
<rect x="760.512" y="614.557" width="76.1429" height="76.0116" transform="rotate(90 760.512 614.557)" stroke="#4D4D6C" stroke-opacity="0.3"/>
<rect x="760.512" y="690.671" width="77.1714" height="76.0116" transform="rotate(90 760.512 690.671)" stroke="#4D4D6C" stroke-opacity="0.3"/>
<rect x="760.512" y="767.814" width="77.1714" height="76.0116" transform="rotate(90 760.512 767.814)" stroke="#4D4D6C" stroke-opacity="0.3"/>
<rect x="760.512" y="844.957" width="76.1429" height="76.0116" transform="rotate(90 760.512 844.957)" stroke="#4D4D6C" stroke-opacity="0.3"/>
<rect x="760.512" y="921.071" width="77.1714" height="76.0116" transform="rotate(90 760.512 921.071)" stroke="#4D4D6C" stroke-opacity="0.3"/>
<rect x="760.512" y="998.087" width="77.1714" height="76.0116" transform="rotate(90 760.512 998.087)" stroke="#4D4D6C" stroke-opacity="0.3"/>
<rect x="760.512" y="1075.29" width="76.2064" height="76" transform="rotate(90 760.512 1075.29)" stroke="#4D4D6C" stroke-opacity="0.3"/>
</svg>
