<svg width="1153" height="620" viewBox="0 0 1153 620" fill="none" xmlns="http://www.w3.org/2000/svg">
<rect x="0.5" y="86.4985" width="77.1714" height="76.0116" stroke="#F0F0F0"/>
<rect x="77.6426" y="86.4985" width="76.1429" height="76.0116" stroke="#F0F0F0"/>
<rect x="153.896" y="86.5" width="77.2222" height="76" stroke="#F0F0F0"/>
<rect x="230.9" y="86.4985" width="76.1429" height="76.0116" stroke="#F0F0F0"/>
<rect x="307.015" y="86.4985" width="77.1714" height="76.0116" stroke="#F0F0F0"/>
<rect x="384.157" y="86.4985" width="77.1714" height="76.0116" stroke="#F0F0F0"/>
<rect x="461.3" y="86.4985" width="76.1429" height="76.0116" stroke="#F0F0F0"/>
<rect x="537.414" y="86.4985" width="77.1714" height="76.0116" stroke="#F0F0F0"/>
<rect x="614.557" y="86.4985" width="76.1429" height="76.0116" stroke="#F0F0F0"/>
<rect x="690.671" y="86.4985" width="77.1714" height="76.0116" stroke="#F0F0F0"/>
<rect x="767.814" y="86.4985" width="77.1714" height="76.0116" stroke="#F0F0F0"/>
<rect x="844.957" y="86.4985" width="76.1429" height="76.0116" stroke="#F0F0F0"/>
<rect x="921.071" y="86.4985" width="77.1714" height="76.0116" stroke="#F0F0F0"/>
<rect x="998.087" y="86.4985" width="77.1714" height="76.0116" stroke="#F0F0F0"/>
<rect x="0.5" y="162.497" width="77.1714" height="76.0116" stroke="#F0F0F0"/>
<rect x="77.6426" y="162.497" width="76.1429" height="76.0116" stroke="#F0F0F0"/>
<rect x="153.757" y="162.497" width="77.1714" height="76.0116" stroke="#F0F0F0"/>
<rect x="230.9" y="162.497" width="76.1429" height="76.0116" stroke="#F0F0F0"/>
<rect x="307.015" y="162.497" width="77.1714" height="76.0116" stroke="#F0F0F0"/>
<rect x="384.157" y="162.497" width="77.1714" height="76.0116" stroke="#F0F0F0"/>
<rect x="461.3" y="162.497" width="76.1429" height="76.0116" stroke="#F0F0F0"/>
<rect x="537.414" y="162.497" width="77.1714" height="76.0116" stroke="#F0F0F0"/>
<rect x="614.557" y="162.497" width="76.1429" height="76.0116" stroke="#F0F0F0"/>
<rect x="690.671" y="162.497" width="77.1714" height="76.0116" stroke="#F0F0F0"/>
<rect x="767.814" y="162.497" width="77.1714" height="76.0116" stroke="#F0F0F0"/>
<rect x="844.957" y="162.497" width="76.1429" height="76.0116" stroke="#F0F0F0"/>
<rect x="921.071" y="162.497" width="77.1714" height="76.0116" stroke="#F0F0F0"/>
<rect x="998.214" y="162.497" width="76.1429" height="76.0116" stroke="#F0F0F0"/>
<rect x="0.5" y="238.495" width="77.1714" height="76.0116" stroke="#F0F0F0"/>
<rect x="153.757" y="238.495" width="77.1714" height="76.0116" stroke="#F0F0F0"/>
<rect x="230.9" y="238.495" width="76.1429" height="76.0116" stroke="#F0F0F0"/>
<rect x="307.015" y="238.495" width="77.1714" height="76.0116" stroke="#F0F0F0"/>
<rect x="384.157" y="238.495" width="77.1714" height="76.0116" stroke="#F0F0F0"/>
<rect x="461.3" y="238.495" width="76.1429" height="76.0116" stroke="#F0F0F0"/>
<rect x="537.414" y="238.495" width="77.1714" height="76.0116" stroke="#F0F0F0"/>
<rect x="614.557" y="238.495" width="76.1429" height="76.0116" stroke="#F0F0F0"/>
<rect x="690.671" y="238.495" width="77.1714" height="76.0116" stroke="#F0F0F0"/>
<rect x="767.814" y="238.495" width="77.1714" height="76.0116" stroke="#F0F0F0"/>
<rect x="844.957" y="238.495" width="76.1429" height="76.0116" stroke="#F0F0F0"/>
<rect x="998.214" y="238.495" width="76.1429" height="76.0116" stroke="#F0F0F0"/>
<rect x="1074.33" y="238.495" width="77.1714" height="76.0116" stroke="#F0F0F0"/>
<rect x="0.5" y="314.493" width="77.1714" height="76.0116" stroke="#F0F0F0"/>
<rect x="77.6426" y="314.493" width="76.1429" height="76.0116" stroke="#F0F0F0"/>
<rect x="153.757" y="314.493" width="77.1714" height="76.0116" stroke="#F0F0F0"/>
<rect x="230.9" y="314.493" width="76.1429" height="76.0116" stroke="#F0F0F0"/>
<rect x="307.015" y="314.493" width="77.1714" height="76.0116" stroke="#F0F0F0"/>
<rect x="384.157" y="314.493" width="77.1714" height="76.0116" stroke="#F0F0F0"/>
<rect x="461.3" y="314.493" width="76.1429" height="76.0116" stroke="#F0F0F0"/>
<rect x="537.415" y="314.493" width="77.1714" height="76.0116" stroke="#F0F0F0"/>
<rect x="537.415" y="390.5" width="77.1714" height="76.0116" stroke="#F0F0F0"/>
<rect x="614.558" y="314.493" width="76.1429" height="76.0116" stroke="#F0F0F0"/>
<rect x="614.558" y="390.5" width="76.1429" height="76.0116" stroke="#F0F0F0"/>
<rect x="690.672" y="314.493" width="77.1714" height="76.0116" stroke="#F0F0F0"/>
<rect x="690.672" y="390.5" width="77.1714" height="76.0116" stroke="#F0F0F0"/>
<rect x="767.814" y="314.493" width="77.1714" height="76.0116" stroke="#F0F0F0"/>
<rect x="844.957" y="314.493" width="76.1429" height="76.0116" stroke="#F0F0F0"/>
<rect x="921.071" y="314.493" width="77.1714" height="76.0116" stroke="#F0F0F0"/>
<rect x="998.214" y="314.493" width="76.1429" height="76.0116" stroke="#F0F0F0"/>
<rect x="0.5" y="390.492" width="77.1714" height="76.0116" stroke="#F0F0F0"/>
<rect x="0.5" y="466.5" width="77.1714" height="76.0116" stroke="#F0F0F0"/>
<rect x="77.6426" y="390.492" width="76.1429" height="76.0116" stroke="#F0F0F0"/>
<rect x="153.757" y="390.492" width="77.1714" height="76.0116" stroke="#F0F0F0"/>
<rect x="230.9" y="390.492" width="76.1429" height="76.0116" stroke="#F0F0F0"/>
<rect x="384.157" y="390.492" width="77.1714" height="76.0116" stroke="#F0F0F0"/>
<rect x="461.3" y="390.492" width="76.1429" height="76.0116" stroke="#F0F0F0"/>
<rect x="767.814" y="390.492" width="77.1714" height="76.0116" stroke="#F0F0F0"/>
<rect x="844.957" y="390.492" width="76.1429" height="76.0116" stroke="#F0F0F0"/>
<rect x="921.071" y="390.492" width="77.1714" height="76.0116" stroke="#F0F0F0"/>
<rect x="998.214" y="390.492" width="76.1429" height="76.0116" stroke="#F0F0F0"/>
<rect x="77.6426" y="466.49" width="76.1429" height="76.0116" stroke="#F0F0F0"/>
<rect x="153.757" y="466.49" width="77.1714" height="76.0116" stroke="#F0F0F0"/>
<rect x="230.899" y="466.49" width="76.1429" height="76.0116" stroke="#F0F0F0"/>
<rect x="307.014" y="466.49" width="77.1714" height="76.0116" stroke="#F0F0F0"/>
<rect x="384.157" y="466.49" width="77.1714" height="76.0116" stroke="#F0F0F0"/>
<rect x="461.3" y="466.49" width="76.1429" height="76.0116" stroke="#F0F0F0"/>
<rect x="537.414" y="466.49" width="77.1714" height="76.0116" stroke="#F0F0F0"/>
<rect x="614.557" y="466.49" width="76.1429" height="76.0116" stroke="#F0F0F0"/>
<rect x="690.671" y="466.49" width="77.1714" height="76.0116" stroke="#F0F0F0"/>
<rect x="767.813" y="466.49" width="77.1714" height="76.0116" stroke="#F0F0F0"/>
<rect x="844.957" y="466.49" width="76.1429" height="76.0116" stroke="#F0F0F0"/>
<rect x="998.214" y="466.49" width="76.1429" height="76.0116" stroke="#F0F0F0"/>
<rect x="920.881" y="466.5" width="77.2222" height="76" stroke="#F0F0F0"/>
<rect x="1075.52" y="86.5" width="76.2064" height="76" stroke="#F0F0F0"/>
<rect x="1074.5" y="162.5" width="77.1714" height="76.0116" stroke="#F0F0F0"/>
<rect x="1074.5" y="238.495" width="77.1714" height="76.0116" stroke="#F0F0F0"/>
<rect x="1074.5" y="314.493" width="77.1714" height="76.0116" stroke="#F0F0F0"/>
<rect x="1074.5" y="390.5" width="77.1714" height="76.0116" stroke="#F0F0F0"/>
<rect x="1074.5" y="466.49" width="77.1714" height="76.0116" stroke="#F0F0F0"/>
<rect x="0.5" y="10.5" width="77.1714" height="76.0116" stroke="#F0F0F0"/>
<rect x="77.6426" y="10.5" width="76.1429" height="76.0116" stroke="#F0F0F0"/>
<rect x="153.896" y="10.502" width="77.2222" height="76" stroke="#F0F0F0"/>
<rect x="230.9" y="10.5" width="76.1429" height="76.0116" stroke="#F0F0F0"/>
<rect x="307.015" y="10.5" width="77.1714" height="76.0116" stroke="#F0F0F0"/>
<rect x="384.157" y="10.5" width="77.1714" height="76.0116" stroke="#F0F0F0"/>
<rect x="461.3" y="10.5" width="76.1429" height="76.0116" stroke="#F0F0F0"/>
<rect x="537.414" y="10.5" width="77.1714" height="76.0116" stroke="#F0F0F0"/>
<rect x="614.557" y="10.5" width="76.1429" height="76.0116" stroke="#F0F0F0"/>
<rect x="690.671" y="10.5" width="77.1714" height="76.0116" stroke="#F0F0F0"/>
<rect x="767.814" y="10.5" width="77.1714" height="76.0116" stroke="#F0F0F0"/>
<rect x="844.957" y="10.5" width="76.1429" height="76.0116" stroke="#F0F0F0"/>
<rect x="921.071" y="10.5" width="77.1714" height="76.0116" stroke="#F0F0F0"/>
<rect x="998.087" y="10.5" width="77.1714" height="76.0116" stroke="#F0F0F0"/>
<rect x="1075.29" y="10.5" width="76.2064" height="76" stroke="#F0F0F0"/>
<rect x="154.643" y="542.5" width="76.1429" height="76.0116" stroke="#F0F0F0"/>
<rect x="77.5" y="542.5" width="77" height="76" stroke="#F0F0F0"/>
<rect x="0.5" y="542.5" width="77" height="76" stroke="#F0F0F0"/>
<rect x="230.757" y="542.5" width="77.1714" height="76.0116" stroke="#F0F0F0"/>
<rect x="307.899" y="542.5" width="76.1429" height="76.0116" stroke="#F0F0F0"/>
<rect x="384.014" y="542.5" width="77.1714" height="76.0116" stroke="#F0F0F0"/>
<rect x="461.157" y="542.5" width="77.1714" height="76.0116" stroke="#F0F0F0"/>
<rect x="538.3" y="542.5" width="76.1429" height="76.0116" stroke="#F0F0F0"/>
<rect x="614.414" y="542.5" width="77.1714" height="76.0116" stroke="#F0F0F0"/>
<rect x="691.557" y="542.5" width="76.1429" height="76.0116" stroke="#F0F0F0"/>
<rect x="767.671" y="542.5" width="77.1714" height="76.0116" stroke="#F0F0F0"/>
<rect x="844.813" y="542.5" width="77.1714" height="76.0116" stroke="#F0F0F0"/>
<rect x="921.957" y="542.5" width="76.1429" height="76.0116" stroke="#F0F0F0"/>
<rect x="1075.21" y="542.5" width="76.1429" height="76.0116" stroke="#F0F0F0"/>
<rect x="997.881" y="542.51" width="77.2222" height="76" stroke="#F0F0F0"/>
</svg>
