<?xml version="1.0" encoding="UTF-8"?><svg xmlns="http://www.w3.org/2000/svg" viewBox="0 0 333.95 271.4"><defs><style>.e{fill:#4d4d4d;fill-rule:evenodd;}</style></defs><g id="a"/><g id="b"><g id="c"><path id="d" class="e" d="M333.95,32.13c-12.28,5.45-25.49,9.13-39.35,10.79,14.14-8.48,25.01-21.9,30.13-37.9-13.24,7.85-27.9,13.56-43.5,16.63C268.72,8.33,250.92,0,231.21,0c-37.84,0-68.52,30.68-68.52,68.51,0,5.38,.6,10.61,1.78,15.62C107.52,81.27,57.03,54,23.24,12.55c-5.89,10.12-9.28,21.89-9.28,34.44,0,23.77,12.1,44.75,30.49,57.03-11.24-.35-21.8-3.43-31.03-8.57-.02,.29-.02,.57-.02,.87,0,33.19,23.62,60.89,54.97,67.17-5.75,1.57-11.81,2.41-18.06,2.41-4.41,0-8.71-.44-12.88-1.24,8.72,27.22,34.01,47.03,64.01,47.59-23.45,18.38-52.99,29.33-85.09,29.33-5.53,0-10.98-.32-16.34-.95,30.32,19.43,66.33,30.77,105.02,30.77,126.02,0,194.94-104.41,194.94-194.94,0-2.97-.06-5.92-.2-8.86,13.38-9.67,25.01-21.74,34.18-35.47Z"/></g></g></svg>