<svg width="517" height="440" viewBox="0 0 517 440" fill="none" xmlns="http://www.w3.org/2000/svg">
    <path fill-rule="evenodd" clip-rule="evenodd" d="M431.403 4.95214C431.878 4.95214 432.262 5.33082 432.262 5.80497C432.262 6.27911 431.878 6.66918 431.403 6.66918C430.948 6.66918 430.494 6.66918 430.04 6.66918C428.813 6.66918 427.818 7.664 427.818 8.89116C427.818 9.34861 427.818 9.80605 427.818 10.2644C427.818 10.7377 427.434 11.1213 426.961 11.1213C426.488 11.1213 426.104 10.7377 426.104 10.2644C426.104 9.80605 426.104 9.34861 426.104 8.89116C426.104 7.664 425.109 6.66918 423.882 6.66918C423.428 6.66918 422.974 6.66918 422.519 6.66918C422.044 6.66918 421.66 6.29051 421.66 5.81636C421.66 5.34221 422.044 4.95214 422.519 4.95214C422.974 4.95214 423.428 4.95214 423.882 4.95214C425.109 4.95214 426.104 3.95733 426.104 2.73016C426.104 2.27272 426.104 1.81528 426.104 1.35694C426.104 0.883665 426.482 0.499996 426.955 0.499996C427.429 0.499996 427.818 0.883665 427.818 1.35694C427.818 1.81527 427.818 2.27272 427.818 2.73016C427.818 3.95733 428.813 4.95214 430.04 4.95214C430.495 4.95214 430.95 4.95214 431.403 4.95214ZM515.641 4.95215C516.116 4.95215 516.5 5.33652 516.5 5.81067C516.5 6.28481 516.116 6.66919 515.641 6.66919L514.278 6.66919C513.051 6.66919 512.056 7.664 512.056 8.89117L512.056 10.2644C512.056 10.7377 511.672 11.1213 511.199 11.1213C510.726 11.1213 510.342 10.7377 510.342 10.2644L510.342 8.87597C510.342 7.64881 509.347 6.65399 508.12 6.65399L506.749 6.65399C506.279 6.65399 505.898 6.27302 505.898 5.80307C505.898 5.33312 506.279 4.95215 506.749 4.95215L508.12 4.95215C509.347 4.95215 510.342 3.95733 510.342 2.73017L510.342 1.35694C510.342 0.883665 510.726 0.5 511.199 0.5C511.672 0.5 512.056 0.883665 512.056 1.35694L512.056 2.73017C512.056 3.95733 513.051 4.95215 514.278 4.95215L515.641 4.95215ZM515.641 433.331C516.116 433.331 516.5 433.715 516.5 434.189C516.5 434.663 516.116 435.048 515.641 435.048L514.278 435.048C513.051 435.048 512.056 436.043 512.056 437.27L512.056 438.643C512.056 439.116 511.672 439.5 511.199 439.5C510.726 439.5 510.342 439.116 510.342 438.643L510.342 437.27C510.342 436.043 509.347 435.048 508.12 435.048L506.757 435.048C506.283 435.048 505.898 434.663 505.898 434.189C505.898 433.715 506.283 433.331 506.757 433.331L508.124 433.331C509.349 433.331 510.342 432.338 510.342 431.112L510.342 429.751C510.342 429.278 510.726 428.894 511.199 428.894C511.672 428.894 512.056 429.278 512.056 429.751L512.056 431.112C512.056 432.338 513.049 433.331 514.274 433.331L515.641 433.331ZM515.641 361.944C516.116 361.944 516.5 362.323 516.5 362.797C516.5 363.271 516.116 363.662 515.641 363.662C515.185 363.662 514.73 363.662 514.274 363.662C513.049 363.662 512.056 364.655 512.056 365.88C512.056 366.334 512.056 366.788 512.056 367.242C512.056 367.715 511.678 368.098 511.205 368.098C510.731 368.098 510.342 367.715 510.342 367.242C510.342 366.787 510.342 366.333 510.342 365.88C510.342 364.655 509.349 363.662 508.124 363.662C507.668 363.662 507.213 363.662 506.757 363.662C506.283 363.662 505.898 363.277 505.898 362.803C505.898 362.329 506.283 361.944 506.757 361.944C507.212 361.944 507.666 361.944 508.12 361.944C509.347 361.944 510.342 360.95 510.342 359.723C510.342 359.265 510.342 358.808 510.342 358.349C510.342 357.876 510.72 357.492 511.193 357.492C511.667 357.492 512.056 357.876 512.056 358.349C512.056 358.808 512.056 359.265 512.056 359.723C512.056 360.95 513.051 361.944 514.278 361.944C514.732 361.944 515.186 361.944 515.641 361.944ZM515.641 290.543C516.116 290.543 516.5 290.922 516.5 291.396C516.5 291.87 516.116 292.26 515.641 292.26C515.186 292.26 514.732 292.26 514.278 292.26C513.051 292.26 512.056 293.255 512.056 294.482C512.056 294.939 512.056 295.397 512.056 295.855C512.056 296.329 511.678 296.712 511.205 296.712C510.731 296.712 510.342 296.329 510.342 295.855C510.342 295.397 510.342 294.939 510.342 294.482C510.342 293.255 509.347 292.26 508.12 292.26C507.666 292.26 507.212 292.26 506.757 292.26C506.283 292.26 505.898 291.881 505.898 291.407C505.898 290.933 506.283 290.543 506.757 290.543C507.212 290.543 507.666 290.543 508.12 290.543C509.347 290.543 510.342 289.548 510.342 288.321C510.342 287.864 510.342 287.406 510.342 286.948C510.342 286.475 510.72 286.091 511.193 286.091C511.667 286.091 512.056 286.475 512.056 286.948C512.056 287.406 512.056 287.864 512.056 288.321C512.056 289.548 513.051 290.543 514.278 290.543C514.732 290.543 515.186 290.543 515.641 290.543ZM515.641 219.141C516.116 219.141 516.5 219.526 516.5 220C516.5 220.474 516.116 220.859 515.641 220.859C515.186 220.859 514.732 220.859 514.278 220.859C513.051 220.859 512.056 221.853 512.056 223.08C512.056 223.538 512.056 223.995 512.056 224.454C512.056 224.927 511.678 225.311 511.205 225.311C510.732 225.311 510.342 224.927 510.342 224.454C510.342 223.995 510.342 223.538 510.342 223.08C510.342 221.853 509.347 220.859 508.12 220.859C507.666 220.859 507.212 220.859 506.757 220.859C506.283 220.859 505.898 220.48 505.898 220.006C505.898 219.532 506.283 219.141 506.757 219.141C507.212 219.141 507.666 219.141 508.12 219.141C509.347 219.141 510.342 218.147 510.342 216.92C510.342 216.462 510.342 216.005 510.342 215.546C510.342 215.073 510.72 214.689 511.193 214.689C511.667 214.689 512.056 215.073 512.056 215.546C512.056 216.005 512.056 216.462 512.056 216.919C512.056 218.147 513.051 219.141 514.278 219.141C514.732 219.141 515.186 219.141 515.641 219.141ZM515.641 147.74C516.116 147.74 516.5 148.124 516.5 148.598C516.5 149.073 516.116 149.457 515.641 149.457C515.186 149.457 514.732 149.457 514.278 149.457C513.051 149.457 512.056 150.452 512.056 151.679C512.056 152.136 512.056 152.594 512.056 153.052C512.056 153.525 511.678 153.909 511.205 153.909C510.732 153.909 510.342 153.525 510.342 153.052C510.342 152.594 510.342 152.136 510.342 151.679C510.342 150.452 509.347 149.457 508.12 149.457C507.666 149.457 507.212 149.457 506.757 149.457C506.283 149.457 505.898 149.078 505.898 148.604C505.898 148.13 506.283 147.74 506.757 147.74C507.213 147.74 507.668 147.74 508.124 147.74C509.349 147.74 510.342 146.747 510.342 145.521C510.342 145.067 510.342 144.613 510.342 144.16C510.342 143.687 510.72 143.303 511.193 143.303C511.667 143.303 512.056 143.687 512.056 144.16C512.056 144.615 512.056 145.069 512.056 145.521C512.056 146.747 513.049 147.74 514.275 147.74C514.73 147.74 515.185 147.74 515.641 147.74ZM515.641 76.3537C516.116 76.3537 516.5 76.7323 516.5 77.2065C516.5 77.6806 516.116 78.0707 515.641 78.0707C515.185 78.0707 514.73 78.0707 514.275 78.0707C513.049 78.0707 512.056 79.0639 512.056 80.2892C512.056 80.7436 512.056 81.1973 512.056 81.6507C512.056 82.124 511.678 82.5077 511.205 82.5077C510.732 82.5077 510.342 82.124 510.342 81.6507C510.342 81.1974 510.342 80.7433 510.342 80.2892C510.342 79.0639 509.349 78.0707 508.124 78.0707C507.668 78.0707 507.213 78.0707 506.757 78.0707C506.283 78.0707 505.898 77.6863 505.898 77.2122C505.898 76.738 506.283 76.3537 506.757 76.3537C507.212 76.3537 507.666 76.3537 508.12 76.3537C509.347 76.3537 510.342 75.3588 510.342 74.1317C510.342 73.6742 510.342 73.2168 510.342 72.7585C510.342 72.2852 510.72 71.9015 511.193 71.9015C511.667 71.9015 512.056 72.2852 512.056 72.7585C512.056 73.2168 512.056 73.6742 512.056 74.1317C512.056 75.3588 513.051 76.3537 514.278 76.3537C514.732 76.3537 515.186 76.3537 515.641 76.3537ZM10.2433 4.95213C10.7175 4.95213 11.1018 5.3365 11.1018 5.81065C11.1018 6.28479 10.7175 6.66917 10.2433 6.66917L8.87985 6.66917C7.65268 6.66917 6.65787 7.66398 6.65787 8.89115L6.65787 10.2644C6.65787 10.7376 6.2742 11.1213 5.8009 11.1213C5.32764 11.1213 4.94397 10.7376 4.94397 10.2644L4.94397 8.87595C4.94397 7.64879 3.94916 6.65397 2.72198 6.65397L1.35095 6.65397C0.880981 6.65397 0.5 6.273 0.5 5.80305C0.5 5.3331 0.880981 4.95212 1.35095 4.95212L2.72198 4.95213C3.94916 4.95213 4.94397 3.95731 4.94397 2.73014L4.94397 1.35692C4.94397 0.883645 5.32764 0.499978 5.8009 0.499978C6.2742 0.499978 6.65787 0.883645 6.65787 1.35692L6.65787 2.73014C6.65787 3.95731 7.65268 4.95213 8.87985 4.95213L10.2433 4.95213ZM10.2433 433.331C10.7174 433.331 11.1018 433.715 11.1018 434.189C11.1018 434.663 10.7174 435.048 10.2433 435.048L8.87983 435.048C7.65266 435.048 6.65785 436.043 6.65785 437.27L6.65785 438.643C6.65785 439.116 6.27418 439.5 5.80088 439.5C5.32762 439.5 4.94395 439.116 4.94395 438.643L4.94395 437.27C4.94395 436.043 3.94914 435.048 2.72197 435.048L1.3585 435.048C0.88438 435.048 0.499981 434.663 0.499981 434.189C0.499981 433.715 0.88438 433.331 1.3585 433.331L2.72551 433.331C3.95073 433.331 4.94395 432.338 4.94395 431.112L4.94395 429.751C4.94395 429.278 5.32762 428.894 5.80088 428.894C6.27418 428.894 6.65785 429.278 6.65785 429.751L6.65785 431.112C6.65785 432.338 7.65107 433.331 8.87632 433.331L10.2433 433.331ZM10.2433 361.944C10.7174 361.944 11.1018 362.323 11.1018 362.797C11.1018 363.271 10.7174 363.662 10.2433 363.662C9.78703 363.662 9.33168 363.662 8.87633 363.662C7.65108 363.662 6.65785 364.655 6.65785 365.88C6.65785 366.334 6.65785 366.788 6.65785 367.242C6.65785 367.715 6.27986 368.098 5.80659 368.098C5.3333 368.098 4.94395 367.715 4.94395 367.242C4.94395 366.787 4.94395 366.333 4.94395 365.88C4.94395 364.655 3.95073 363.662 2.72551 363.662C2.27013 363.662 1.81474 363.662 1.3585 363.662C0.884384 363.662 0.499984 363.277 0.499984 362.803C0.499984 362.329 0.884384 361.944 1.3585 361.944C1.81358 361.944 2.26781 361.944 2.72197 361.944C3.94914 361.944 4.94395 360.95 4.94395 359.722C4.94395 359.265 4.94395 358.808 4.94395 358.349C4.94395 357.876 5.32194 357.492 5.79521 357.492C6.26848 357.492 6.65785 357.876 6.65785 358.349C6.65785 358.808 6.65785 359.265 6.65785 359.722C6.65785 360.95 7.65266 361.944 8.87984 361.944C9.33375 361.944 9.78838 361.944 10.2433 361.944ZM10.2433 290.543C10.7175 290.543 11.1018 290.922 11.1018 291.396C11.1018 291.87 10.7175 292.26 10.2433 292.26C9.78823 292.26 9.33403 292.26 8.87984 292.26C7.65267 292.26 6.65785 293.255 6.65785 294.482C6.65785 294.939 6.65785 295.397 6.65785 295.855C6.65785 296.328 6.27986 296.712 5.8066 296.712C5.3333 296.712 4.94396 296.328 4.94396 295.855C4.94396 295.397 4.94396 294.939 4.94396 294.482C4.94396 293.255 3.94914 292.26 2.72197 292.26C2.26775 292.26 1.81359 292.26 1.35851 292.26C0.884387 292.26 0.499987 291.881 0.499987 291.407C0.499987 290.933 0.884387 290.543 1.35851 290.543C1.81359 290.543 2.26775 290.543 2.72197 290.543C3.94915 290.543 4.94396 289.548 4.94396 288.321C4.94396 287.864 4.94396 287.406 4.94396 286.948C4.94396 286.474 5.32195 286.091 5.79521 286.091C6.26848 286.091 6.65785 286.474 6.65785 286.948C6.65785 287.406 6.65785 287.864 6.65785 288.321C6.65785 289.548 7.65267 290.543 8.87984 290.543C9.33376 290.543 9.78838 290.543 10.2433 290.543ZM10.2433 219.141C10.7175 219.141 11.1018 219.526 11.1018 220C11.1018 220.474 10.7175 220.858 10.2433 220.858C9.78823 220.858 9.33404 220.858 8.87984 220.858C7.65267 220.858 6.65786 221.853 6.65786 223.08C6.65786 223.538 6.65786 223.995 6.65786 224.454C6.65786 224.927 6.27987 225.311 5.8066 225.311C5.3333 225.311 4.94396 224.927 4.94396 224.454C4.94396 223.995 4.94396 223.538 4.94396 223.08C4.94396 221.853 3.94915 220.858 2.72198 220.858C2.26775 220.858 1.81359 220.858 1.35851 220.858C0.88439 220.858 0.49999 220.48 0.49999 220.006C0.49999 219.532 0.88439 219.141 1.35851 219.141C1.81359 219.141 2.26775 219.141 2.72198 219.141C3.94915 219.141 4.94396 218.147 4.94396 216.919C4.94396 216.462 4.94396 216.005 4.94396 215.546C4.94396 215.073 5.32195 214.689 5.79522 214.689C6.26848 214.689 6.65786 215.073 6.65786 215.546C6.65786 216.005 6.65786 216.462 6.65786 216.919C6.65786 218.147 7.65267 219.141 8.87984 219.141C9.33376 219.141 9.78838 219.141 10.2433 219.141ZM10.2433 147.74C10.7175 147.74 11.1018 148.124 11.1018 148.598C11.1018 149.073 10.7174 149.457 10.2433 149.457C9.78823 149.457 9.33404 149.457 8.87985 149.457C7.65267 149.457 6.65786 150.452 6.65786 151.679C6.65786 152.136 6.65786 152.594 6.65786 153.052C6.65786 153.525 6.27987 153.909 5.8066 153.909C5.33331 153.909 4.94396 153.525 4.94396 153.052C4.94396 152.594 4.94396 152.136 4.94396 151.679C4.94396 150.452 3.94915 149.457 2.72198 149.457C2.26775 149.457 1.81359 149.457 1.35851 149.457C0.884393 149.457 0.499994 149.078 0.499994 148.604C0.499994 148.13 0.884393 147.74 1.35851 147.74C1.81475 147.74 2.27014 147.74 2.72546 147.74C3.95074 147.74 4.94396 146.747 4.94396 145.521C4.94396 145.067 4.94396 144.613 4.94396 144.16C4.94396 143.687 5.32195 143.303 5.79522 143.303C6.26849 143.303 6.65786 143.687 6.65786 144.16C6.65786 144.615 6.65786 145.068 6.65786 145.521C6.65786 146.747 7.65109 147.74 8.87634 147.74C9.33141 147.74 9.78723 147.74 10.2433 147.74ZM10.2433 76.3536C10.7175 76.3536 11.1018 76.7323 11.1018 77.2065C11.1018 77.6806 10.7174 78.0707 10.2433 78.0707C9.78704 78.0707 9.33169 78.0707 8.87634 78.0707C7.65109 78.0707 6.65786 79.0639 6.65786 80.2892C6.65786 80.7436 6.65786 81.1973 6.65786 81.6507C6.65786 82.124 6.27987 82.5076 5.80661 82.5076C5.33331 82.5076 4.94397 82.124 4.94397 81.6507C4.94397 81.1974 4.94397 80.7433 4.94397 80.2892C4.94397 79.0639 3.95074 78.0707 2.72546 78.0707C2.27014 78.0707 1.81475 78.0707 1.35852 78.0707C0.884396 78.0707 0.499997 77.6863 0.499997 77.2122C0.499997 76.738 0.884396 76.3536 1.35852 76.3536C1.8136 76.3536 2.26776 76.3536 2.72198 76.3536C3.94915 76.3536 4.94397 75.3588 4.94397 74.1317C4.94397 73.6742 4.94397 73.2168 4.94397 72.7584C4.94397 72.2852 5.32196 71.9015 5.79522 71.9015C6.26849 71.9015 6.65786 72.2852 6.65786 72.7584C6.65786 73.2168 6.65786 73.6742 6.65786 74.1317C6.65786 75.3588 7.65268 76.3536 8.87985 76.3536C9.33377 76.3536 9.78839 76.3536 10.2433 76.3536ZM94.4662 4.95213C94.9404 4.95213 95.3248 5.3308 95.3248 5.80495C95.3248 6.2791 94.9404 6.66917 94.4662 6.66917C94.0112 6.66917 93.557 6.66917 93.1028 6.66917C91.8756 6.66917 90.8808 7.66399 90.8808 8.89115C90.8808 9.3486 90.8808 9.80604 90.8808 10.2644C90.8808 10.7376 90.5028 11.1213 90.0295 11.1213C89.5562 11.1213 89.1669 10.7376 89.1669 10.2644C89.1669 9.80604 89.1669 9.3486 89.1669 8.89115C89.1669 7.66399 88.1721 6.66917 86.9449 6.66917C86.4907 6.66917 86.0365 6.66917 85.5815 6.66917C85.1073 6.66917 84.7229 6.29049 84.7229 5.81635C84.7229 5.3422 85.1073 4.95213 85.5815 4.95213C86.0349 4.95213 86.4896 4.95213 86.9449 4.95213C88.1721 4.95213 89.1669 3.95731 89.1669 2.73014C89.1669 2.2727 89.1669 1.81526 89.1669 1.35693C89.1669 0.883653 89.5506 0.499981 90.0238 0.499981C90.4971 0.499981 90.8808 0.883652 90.8808 1.35693C90.8808 1.81526 90.8808 2.2727 90.8808 2.73014C90.8808 3.95731 91.8756 4.95213 93.1028 4.95213C93.5581 4.95213 94.0128 4.95213 94.4662 4.95213ZM94.4662 433.331C94.9404 433.331 95.3247 433.715 95.3247 434.189C95.3247 434.663 94.9403 435.048 94.4662 435.048C94.0112 435.048 93.557 435.048 93.1028 435.048C91.8756 435.048 90.8808 436.043 90.8808 437.27C90.8808 437.727 90.8808 438.185 90.8808 438.643C90.8808 439.116 90.5028 439.5 90.0295 439.5C89.5562 439.5 89.1669 439.116 89.1669 438.643C89.1669 438.185 89.1669 437.727 89.1669 437.27C89.1669 436.043 88.1721 435.048 86.9449 435.048C86.4907 435.048 86.0365 435.048 85.5814 435.048C85.1073 435.048 84.7229 434.669 84.7229 434.195C84.7229 433.721 85.1073 433.331 85.5814 433.331C86.0361 433.331 86.4919 433.331 86.9484 433.331C88.1736 433.331 89.1669 432.338 89.1669 431.112C89.1669 430.658 89.1669 430.204 89.1669 429.751C89.1669 429.278 89.5505 428.894 90.0238 428.894C90.4971 428.894 90.8808 429.278 90.8808 429.751C90.8808 430.206 90.8808 430.659 90.8808 431.112C90.8808 432.338 91.874 433.331 93.0993 433.331C93.5558 433.331 94.0116 433.331 94.4662 433.331ZM94.4662 361.944C94.9404 361.944 95.3248 362.323 95.3248 362.797C95.3248 363.271 94.9404 363.662 94.4662 363.662C94.01 363.662 93.5546 363.662 93.0992 363.662C91.874 363.662 90.8808 364.655 90.8808 365.88C90.8808 366.334 90.8808 366.788 90.8808 367.242C90.8808 367.715 90.5028 368.098 90.0295 368.098C89.5562 368.098 89.1669 367.715 89.1669 367.242C89.1669 366.787 89.1669 366.333 89.1669 365.88C89.1669 364.655 88.1736 363.662 86.9484 363.662C86.4931 363.662 86.0377 363.662 85.5814 363.662C85.1073 363.662 84.7229 363.277 84.7229 362.803C84.7229 362.329 85.1073 361.944 85.5814 361.944C86.0349 361.944 86.4895 361.944 86.9449 361.944C88.1721 361.944 89.1669 360.95 89.1669 359.722C89.1669 359.265 89.1669 358.808 89.1669 358.349C89.1669 357.876 89.5506 357.492 90.0238 357.492C90.4971 357.492 90.8808 357.876 90.8808 358.349C90.8808 358.808 90.8808 359.265 90.8808 359.722C90.8808 360.95 91.8756 361.944 93.1028 361.944C93.5581 361.944 94.0127 361.944 94.4662 361.944ZM94.4662 290.543C94.9404 290.543 95.3248 290.922 95.3248 291.396C95.3248 291.87 94.9404 292.26 94.4662 292.26C94.0112 292.26 93.557 292.26 93.1028 292.26C91.8756 292.26 90.8808 293.255 90.8808 294.482C90.8808 294.939 90.8808 295.397 90.8808 295.855C90.8808 296.329 90.5028 296.712 90.0295 296.712C89.5562 296.712 89.1669 296.329 89.1669 295.855C89.1669 295.397 89.1669 294.939 89.1669 294.482C89.1669 293.255 88.1721 292.26 86.9449 292.26C86.4907 292.26 86.0365 292.26 85.5814 292.26C85.1073 292.26 84.7229 291.881 84.7229 291.407C84.7229 290.933 85.1073 290.543 85.5814 290.543C86.0349 290.543 86.4896 290.543 86.9449 290.543C88.1721 290.543 89.1669 289.548 89.1669 288.321C89.1669 287.864 89.1669 287.406 89.1669 286.948C89.1669 286.474 89.5506 286.091 90.0238 286.091C90.4971 286.091 90.8808 286.474 90.8808 286.948C90.8808 287.406 90.8808 287.864 90.8808 288.321C90.8808 289.548 91.8756 290.543 93.1028 290.543C93.5581 290.543 94.0127 290.543 94.4662 290.543ZM94.4662 219.141C94.9404 219.141 95.3248 219.526 95.3248 220C95.3248 220.474 94.9404 220.858 94.4662 220.858C94.0112 220.858 93.557 220.858 93.1028 220.858C91.8756 220.858 90.8808 221.853 90.8808 223.08C90.8808 223.538 90.8808 223.995 90.8808 224.454C90.8808 224.927 90.5028 225.311 90.0295 225.311C89.5562 225.311 89.1669 224.927 89.1669 224.454C89.1669 223.995 89.1669 223.538 89.1669 223.08C89.1669 221.853 88.1721 220.858 86.9449 220.858C86.4907 220.858 86.0365 220.858 85.5814 220.858C85.1073 220.858 84.7229 220.48 84.7229 220.006C84.7229 219.532 85.1073 219.141 85.5814 219.141C86.0349 219.141 86.4896 219.141 86.9449 219.141C88.1721 219.141 89.1669 218.147 89.1669 216.919C89.1669 216.462 89.1669 216.005 89.1669 215.546C89.1669 215.073 89.5506 214.689 90.0238 214.689C90.4971 214.689 90.8808 215.073 90.8808 215.546C90.8808 216.005 90.8808 216.462 90.8808 216.919C90.8808 218.147 91.8756 219.141 93.1028 219.141C93.5581 219.141 94.0127 219.141 94.4662 219.141ZM94.4662 147.74C94.9404 147.74 95.3248 148.124 95.3248 148.598C95.3248 149.073 94.9404 149.457 94.4662 149.457C94.0112 149.457 93.557 149.457 93.1028 149.457C91.8756 149.457 90.8808 150.452 90.8808 151.679C90.8808 152.136 90.8808 152.594 90.8808 153.052C90.8808 153.525 90.5028 153.909 90.0295 153.909C89.5562 153.909 89.1669 153.525 89.1669 153.052C89.1669 152.594 89.1669 152.136 89.1669 151.679C89.1669 150.452 88.1721 149.457 86.9449 149.457C86.4907 149.457 86.0365 149.457 85.5814 149.457C85.1073 149.457 84.7229 149.078 84.7229 148.604C84.7229 148.13 85.1073 147.74 85.5814 147.74C86.0361 147.74 86.4919 147.74 86.9484 147.74C88.1736 147.74 89.1669 146.747 89.1669 145.521C89.1669 145.067 89.1669 144.613 89.1669 144.16C89.1669 143.687 89.5506 143.303 90.0238 143.303C90.4971 143.303 90.8808 143.687 90.8808 144.16C90.8808 144.615 90.8808 145.068 90.8808 145.521C90.8808 146.747 91.874 147.74 93.0993 147.74C93.5558 147.74 94.0116 147.74 94.4662 147.74ZM94.4662 76.3536C94.9404 76.3536 95.3248 76.7323 95.3248 77.2065C95.3248 77.6806 94.9404 78.0707 94.4662 78.0707C94.01 78.0707 93.5546 78.0707 93.0993 78.0707C91.874 78.0707 90.8808 79.0639 90.8808 80.2892C90.8808 80.7436 90.8808 81.1973 90.8808 81.6507C90.8808 82.124 90.5028 82.5076 90.0295 82.5076C89.5562 82.5076 89.1669 82.124 89.1669 81.6507C89.1669 81.1974 89.1669 80.7433 89.1669 80.2892C89.1669 79.0639 88.1736 78.0707 86.9484 78.0707C86.493 78.0707 86.0377 78.0707 85.5814 78.0707C85.1073 78.0707 84.7229 77.6863 84.7229 77.2122C84.7229 76.738 85.1073 76.3536 85.5814 76.3536C86.0349 76.3536 86.4896 76.3536 86.9449 76.3536C88.1721 76.3536 89.1669 75.3588 89.1669 74.1317C89.1669 73.6742 89.1669 73.2168 89.1669 72.7584C89.1669 72.2852 89.5506 71.9015 90.0238 71.9015C90.4971 71.9015 90.8808 72.2852 90.8808 72.7584C90.8808 73.2168 90.8808 73.6742 90.8808 74.1317C90.8808 75.3588 91.8756 76.3536 93.1028 76.3536C93.5581 76.3536 94.0128 76.3536 94.4662 76.3536ZM178.704 4.95213C179.178 4.95213 179.563 5.33081 179.563 5.80495C179.563 6.2791 179.178 6.66917 178.704 6.66917C178.251 6.66917 177.796 6.66917 177.341 6.66917C176.114 6.66917 175.119 7.66399 175.119 8.89116C175.119 9.3486 175.119 9.80604 175.119 10.2644C175.119 10.7376 174.735 11.1213 174.262 11.1213C173.789 11.1213 173.405 10.7377 173.405 10.2644C173.405 9.80603 173.405 9.34859 173.405 8.89114C173.405 7.66398 172.41 6.66917 171.183 6.66917C170.729 6.66917 170.275 6.66917 169.82 6.66917C169.345 6.66917 168.961 6.2905 168.961 5.81635C168.961 5.3422 169.345 4.95213 169.82 4.95213C170.275 4.95213 170.729 4.95213 171.183 4.95213C172.41 4.95213 173.405 3.95732 173.405 2.73017C173.405 2.27272 173.405 1.81527 173.405 1.35693C173.405 0.883656 173.783 0.499985 174.256 0.499985C174.729 0.499985 175.119 0.883656 175.119 1.35693C175.119 1.81527 175.119 2.27271 175.119 2.73015C175.119 3.95732 176.114 4.95213 177.341 4.95213C177.796 4.95213 178.251 4.95213 178.704 4.95213ZM178.704 433.331C179.178 433.331 179.563 433.715 179.563 434.189C179.563 434.663 179.178 435.048 178.704 435.048C178.251 435.048 177.796 435.048 177.341 435.048C176.114 435.048 175.119 436.043 175.119 437.27C175.119 437.727 175.119 438.185 175.119 438.643C175.119 439.116 174.735 439.5 174.262 439.5C173.789 439.5 173.405 439.116 173.405 438.643C173.405 438.185 173.405 437.727 173.405 437.27C173.405 436.043 172.41 435.048 171.183 435.048C170.729 435.048 170.275 435.048 169.82 435.048C169.345 435.048 168.961 434.669 168.961 434.195C168.961 433.721 169.345 433.331 169.82 433.331C170.276 433.331 170.731 433.331 171.186 433.331C172.412 433.331 173.405 432.338 173.405 431.112C173.405 430.658 173.405 430.204 173.405 429.751C173.405 429.278 173.783 428.894 174.256 428.894C174.729 428.894 175.119 429.278 175.119 429.751C175.119 430.206 175.119 430.659 175.119 431.112C175.119 432.338 176.112 433.331 177.337 433.331C177.794 433.331 178.25 433.331 178.704 433.331ZM178.704 361.944C179.178 361.944 179.563 362.323 179.563 362.797C179.563 363.271 179.178 363.662 178.704 363.662C178.25 363.662 177.794 363.662 177.337 363.662C176.112 363.662 175.119 364.655 175.119 365.88C175.119 366.334 175.119 366.788 175.119 367.242C175.119 367.715 174.735 368.098 174.262 368.098C173.789 368.098 173.405 367.715 173.405 367.242C173.405 366.787 173.405 366.333 173.405 365.88C173.405 364.655 172.412 363.662 171.186 363.662C170.731 363.662 170.276 363.662 169.82 363.662C169.345 363.662 168.961 363.277 168.961 362.803C168.961 362.329 169.345 361.944 169.82 361.944C170.275 361.944 170.729 361.944 171.183 361.944C172.41 361.944 173.405 360.95 173.405 359.723C173.405 359.265 173.405 358.808 173.405 358.349C173.405 357.876 173.783 357.492 174.256 357.492C174.729 357.492 175.119 357.876 175.119 358.349C175.119 358.808 175.119 359.265 175.119 359.722C175.119 360.95 176.114 361.944 177.341 361.944C177.796 361.944 178.251 361.944 178.704 361.944ZM178.704 290.543C179.178 290.543 179.563 290.922 179.563 291.396C179.563 291.87 179.178 292.26 178.704 292.26C178.251 292.26 177.796 292.26 177.341 292.26C176.114 292.26 175.119 293.255 175.119 294.482C175.119 294.939 175.119 295.397 175.119 295.855C175.119 296.329 174.735 296.712 174.262 296.712C173.789 296.712 173.405 296.329 173.405 295.855C173.405 295.397 173.405 294.939 173.405 294.482C173.405 293.255 172.41 292.26 171.183 292.26C170.729 292.26 170.275 292.26 169.82 292.26C169.345 292.26 168.961 291.881 168.961 291.407C168.961 290.933 169.345 290.543 169.82 290.543C170.275 290.543 170.729 290.543 171.183 290.543C172.41 290.543 173.405 289.548 173.405 288.321C173.405 287.864 173.405 287.406 173.405 286.948C173.405 286.475 173.783 286.091 174.256 286.091C174.729 286.091 175.119 286.475 175.119 286.948C175.119 287.406 175.119 287.864 175.119 288.321C175.119 289.548 176.114 290.543 177.341 290.543C177.796 290.543 178.251 290.543 178.704 290.543ZM178.704 219.141C179.178 219.141 179.563 219.526 179.563 220C179.563 220.474 179.178 220.858 178.704 220.858C178.251 220.858 177.796 220.858 177.341 220.858C176.114 220.858 175.119 221.853 175.119 223.08C175.119 223.538 175.119 223.995 175.119 224.454C175.119 224.927 174.735 225.311 174.262 225.311C173.789 225.311 173.405 224.927 173.405 224.454C173.405 223.995 173.405 223.538 173.405 223.08C173.405 221.853 172.41 220.858 171.183 220.858C170.729 220.858 170.275 220.858 169.82 220.858C169.345 220.858 168.961 220.48 168.961 220.006C168.961 219.532 169.345 219.141 169.82 219.141C170.275 219.141 170.729 219.141 171.183 219.141C172.41 219.141 173.405 218.147 173.405 216.919C173.405 216.462 173.405 216.005 173.405 215.546C173.405 215.073 173.783 214.689 174.256 214.689C174.729 214.689 175.119 215.073 175.119 215.546C175.119 216.005 175.119 216.462 175.119 216.919C175.119 218.147 176.114 219.141 177.341 219.141C177.796 219.141 178.251 219.141 178.704 219.141ZM178.704 147.74C179.178 147.74 179.563 148.124 179.563 148.598C179.563 149.073 179.178 149.457 178.704 149.457C178.251 149.457 177.796 149.457 177.341 149.457C176.114 149.457 175.119 150.452 175.119 151.679C175.119 152.136 175.119 152.594 175.119 153.052C175.119 153.525 174.735 153.909 174.262 153.909C173.789 153.909 173.405 153.525 173.405 153.052C173.405 152.594 173.405 152.136 173.405 151.679C173.405 150.452 172.41 149.457 171.183 149.457C170.729 149.457 170.275 149.457 169.82 149.457C169.345 149.457 168.961 149.078 168.961 148.604C168.961 148.13 169.345 147.74 169.82 147.74C170.276 147.74 170.731 147.74 171.186 147.74C172.412 147.74 173.405 146.747 173.405 145.521C173.405 145.067 173.405 144.613 173.405 144.16C173.405 143.687 173.783 143.303 174.256 143.303C174.729 143.303 175.119 143.687 175.119 144.16C175.119 144.615 175.119 145.068 175.119 145.521C175.119 146.747 176.112 147.74 177.337 147.74C177.794 147.74 178.25 147.74 178.704 147.74ZM178.704 76.3536C179.178 76.3536 179.563 76.7323 179.563 77.2065C179.563 77.6806 179.178 78.0707 178.704 78.0707C178.25 78.0707 177.794 78.0707 177.337 78.0707C176.112 78.0707 175.119 79.0639 175.119 80.2892C175.119 80.7436 175.119 81.1973 175.119 81.6507C175.119 82.124 174.735 82.5076 174.262 82.5076C173.789 82.5076 173.405 82.124 173.405 81.6507C173.405 81.1974 173.405 80.7433 173.405 80.2892C173.405 79.0639 172.412 78.0707 171.186 78.0707C170.731 78.0707 170.276 78.0707 169.82 78.0707C169.345 78.0707 168.961 77.6863 168.961 77.2122C168.961 76.738 169.345 76.3536 169.82 76.3536C170.275 76.3536 170.729 76.3536 171.183 76.3536C172.41 76.3536 173.405 75.3588 173.405 74.1317C173.405 73.6742 173.405 73.2168 173.405 72.7584C173.405 72.2852 173.783 71.9015 174.256 71.9015C174.729 71.9015 175.119 72.2852 175.119 72.7584C175.119 73.2168 175.119 73.6742 175.119 74.1317C175.119 75.3588 176.114 76.3536 177.341 76.3536C177.796 76.3536 178.251 76.3536 178.704 76.3536ZM262.942 4.95214C263.417 4.95214 263.801 5.33081 263.801 5.80496C263.801 6.27911 263.417 6.66918 262.942 6.66918C262.487 6.66918 262.033 6.66918 261.579 6.66918C260.352 6.66918 259.357 7.66399 259.357 8.89116C259.357 9.34861 259.357 9.80605 259.357 10.2644C259.357 10.7377 258.979 11.1213 258.506 11.1213C258.032 11.1213 257.643 10.7377 257.643 10.2644C257.643 9.80605 257.643 9.34861 257.643 8.89116C257.643 7.66399 256.648 6.66918 255.421 6.66918C254.967 6.66918 254.513 6.66918 254.058 6.66918C253.583 6.66918 253.199 6.2905 253.199 5.81635C253.199 5.34221 253.583 4.95214 254.058 4.95214C254.513 4.95214 254.967 4.95214 255.421 4.95214C256.648 4.95214 257.643 3.95732 257.643 2.73015C257.643 2.27271 257.643 1.81526 257.643 1.35693C257.643 0.883656 258.021 0.499989 258.494 0.499989C258.968 0.499989 259.357 0.883655 259.357 1.35693C259.357 1.81526 259.357 2.27271 259.357 2.73015C259.357 3.95732 260.352 4.95214 261.579 4.95214C262.033 4.95214 262.487 4.95214 262.942 4.95214ZM262.942 433.331C263.417 433.331 263.801 433.715 263.801 434.189C263.801 434.663 263.417 435.048 262.942 435.048C262.487 435.048 262.033 435.048 261.579 435.048C260.352 435.048 259.357 436.043 259.357 437.27C259.357 437.727 259.357 438.185 259.357 438.643C259.357 439.116 258.979 439.5 258.506 439.5C258.032 439.5 257.643 439.116 257.643 438.643C257.643 438.185 257.643 437.727 257.643 437.27C257.643 436.043 256.648 435.048 255.421 435.048C254.967 435.048 254.513 435.048 254.058 435.048C253.583 435.048 253.199 434.669 253.199 434.195C253.199 433.721 253.583 433.331 254.058 433.331C254.514 433.331 254.969 433.331 255.425 433.331C256.65 433.331 257.643 432.338 257.643 431.112C257.643 430.658 257.643 430.204 257.643 429.751C257.643 429.278 258.021 428.894 258.494 428.894C258.968 428.894 259.357 429.278 259.357 429.751C259.357 430.206 259.357 430.659 259.357 431.112C259.357 432.338 260.35 433.331 261.575 433.331C262.031 433.331 262.486 433.331 262.942 433.331ZM262.942 361.944C263.417 361.944 263.801 362.323 263.801 362.797C263.801 363.271 263.417 363.662 262.942 363.662C262.486 363.662 262.031 363.662 261.575 363.662C260.35 363.662 259.357 364.655 259.357 365.88C259.357 366.334 259.357 366.788 259.357 367.242C259.357 367.715 258.979 368.098 258.506 368.098C258.032 368.098 257.643 367.715 257.643 367.242C257.643 366.787 257.643 366.333 257.643 365.88C257.643 364.655 256.65 363.662 255.425 363.662C254.969 363.662 254.514 363.662 254.058 363.662C253.583 363.662 253.199 363.277 253.199 362.803C253.199 362.329 253.583 361.944 254.058 361.944C254.513 361.944 254.967 361.944 255.421 361.944C256.648 361.944 257.643 360.95 257.643 359.722C257.643 359.265 257.643 358.808 257.643 358.349C257.643 357.876 258.021 357.492 258.494 357.492C258.968 357.492 259.357 357.876 259.357 358.349C259.357 358.808 259.357 359.265 259.357 359.722C259.357 360.95 260.352 361.944 261.579 361.944C262.033 361.944 262.487 361.944 262.942 361.944ZM262.942 290.543C263.417 290.543 263.801 290.922 263.801 291.396C263.801 291.87 263.417 292.26 262.942 292.26C262.487 292.26 262.033 292.26 261.579 292.26C260.352 292.26 259.357 293.255 259.357 294.482C259.357 294.939 259.357 295.397 259.357 295.855C259.357 296.329 258.979 296.712 258.506 296.712C258.032 296.712 257.643 296.329 257.643 295.855C257.643 295.397 257.643 294.939 257.643 294.482C257.643 293.255 256.648 292.26 255.421 292.26C254.967 292.26 254.513 292.26 254.058 292.26C253.583 292.26 253.199 291.881 253.199 291.407C253.199 290.933 253.583 290.543 254.058 290.543C254.513 290.543 254.967 290.543 255.421 290.543C256.648 290.543 257.643 289.548 257.643 288.321C257.643 287.864 257.643 287.406 257.643 286.948C257.643 286.475 258.021 286.091 258.494 286.091C258.968 286.091 259.357 286.475 259.357 286.948C259.357 287.406 259.357 287.864 259.357 288.321C259.357 289.548 260.352 290.543 261.579 290.543C262.033 290.543 262.487 290.543 262.942 290.543ZM262.942 219.141C263.417 219.141 263.801 219.526 263.801 220C263.801 220.474 263.417 220.858 262.942 220.858C262.487 220.858 262.033 220.858 261.579 220.858C260.352 220.858 259.357 221.853 259.357 223.08C259.357 223.538 259.357 223.995 259.357 224.454C259.357 224.927 258.979 225.311 258.506 225.311C258.032 225.311 257.643 224.927 257.643 224.454C257.643 223.995 257.643 223.538 257.643 223.08C257.643 221.853 256.648 220.858 255.421 220.858C254.967 220.858 254.513 220.858 254.058 220.858C253.583 220.858 253.199 220.48 253.199 220.006C253.199 219.532 253.583 219.141 254.058 219.141C254.513 219.141 254.967 219.141 255.421 219.141C256.648 219.141 257.643 218.147 257.643 216.919C257.643 216.462 257.643 216.005 257.643 215.546C257.643 215.073 258.021 214.689 258.494 214.689C258.968 214.689 259.357 215.073 259.357 215.546C259.357 216.005 259.357 216.462 259.357 216.919C259.357 218.147 260.352 219.141 261.579 219.141C262.033 219.141 262.487 219.141 262.942 219.141ZM262.942 147.74C263.417 147.74 263.801 148.124 263.801 148.598C263.801 149.073 263.417 149.457 262.942 149.457C262.487 149.457 262.033 149.457 261.579 149.457C260.352 149.457 259.357 150.452 259.357 151.679C259.357 152.136 259.357 152.594 259.357 153.052C259.357 153.525 258.979 153.909 258.506 153.909C258.032 153.909 257.643 153.525 257.643 153.052C257.643 152.594 257.643 152.136 257.643 151.679C257.643 150.452 256.648 149.457 255.421 149.457C254.967 149.457 254.513 149.457 254.058 149.457C253.583 149.457 253.199 149.078 253.199 148.604C253.199 148.13 253.583 147.74 254.058 147.74C254.514 147.74 254.969 147.74 255.425 147.74C256.65 147.74 257.643 146.747 257.643 145.521C257.643 145.067 257.643 144.613 257.643 144.16C257.643 143.687 258.021 143.303 258.494 143.303C258.968 143.303 259.357 143.687 259.357 144.16C259.357 144.615 259.357 145.069 259.357 145.521C259.357 146.747 260.35 147.74 261.575 147.74C262.031 147.74 262.486 147.74 262.942 147.74ZM262.942 76.3536C263.417 76.3536 263.801 76.7323 263.801 77.2065C263.801 77.6806 263.417 78.0707 262.942 78.0707C262.486 78.0707 262.031 78.0707 261.575 78.0707C260.35 78.0707 259.357 79.0639 259.357 80.2892C259.357 80.7436 259.357 81.1973 259.357 81.6507C259.357 82.124 258.979 82.5076 258.506 82.5076C258.032 82.5076 257.643 82.124 257.643 81.6507C257.643 81.1974 257.643 80.7433 257.643 80.2892C257.643 79.0639 256.65 78.0707 255.425 78.0707C254.969 78.0707 254.514 78.0707 254.058 78.0707C253.583 78.0707 253.199 77.6863 253.199 77.2122C253.199 76.738 253.583 76.3536 254.058 76.3536C254.513 76.3536 254.967 76.3536 255.421 76.3536C256.648 76.3536 257.643 75.3588 257.643 74.1317C257.643 73.6742 257.643 73.2168 257.643 72.7584C257.643 72.2852 258.021 71.9015 258.494 71.9015C258.968 71.9015 259.357 72.2852 259.357 72.7584C259.357 73.2168 259.357 73.6742 259.357 74.1317C259.357 75.3588 260.352 76.3536 261.579 76.3536C262.033 76.3536 262.487 76.3536 262.942 76.3536ZM347.165 4.95214C347.639 4.95214 348.024 5.33081 348.024 5.80496C348.024 6.27911 347.639 6.66918 347.165 6.66918C346.71 6.66918 346.256 6.66918 345.802 6.66918C344.575 6.66918 343.58 7.66399 343.58 8.89116C343.58 9.3486 343.58 9.80604 343.58 10.2644C343.58 10.7377 343.202 11.1213 342.729 11.1213C342.255 11.1213 341.866 10.7377 341.866 10.2644C341.866 9.80604 341.866 9.3486 341.866 8.89116C341.866 7.66399 340.871 6.66918 339.644 6.66918C339.19 6.66918 338.736 6.66918 338.281 6.66918C337.806 6.66918 337.422 6.29051 337.422 5.81636C337.422 5.34221 337.806 4.95214 338.281 4.95214C338.736 4.95214 339.19 4.95214 339.644 4.95214C340.871 4.95214 341.866 3.95733 341.866 2.73017C341.866 2.27272 341.866 1.81528 341.866 1.35694C341.866 0.883664 342.25 0.499992 342.723 0.499992C343.196 0.499992 343.58 0.883663 343.58 1.35694C343.58 1.81528 343.58 2.27272 343.58 2.73016C343.58 3.95733 344.575 4.95214 345.802 4.95214C346.257 4.95214 346.712 4.95214 347.165 4.95214ZM347.165 433.331C347.639 433.331 348.024 433.715 348.024 434.189C348.024 434.663 347.639 435.048 347.165 435.048C346.71 435.048 346.256 435.048 345.802 435.048C344.575 435.048 343.58 436.043 343.58 437.27C343.58 437.727 343.58 438.185 343.58 438.643C343.58 439.116 343.202 439.5 342.729 439.5C342.255 439.5 341.866 439.116 341.866 438.643C341.866 438.185 341.866 437.727 341.866 437.27C341.866 436.043 340.871 435.048 339.644 435.048C339.19 435.048 338.736 435.048 338.281 435.048C337.806 435.048 337.422 434.669 337.422 434.195C337.422 433.721 337.806 433.331 338.281 433.331C338.737 433.331 339.192 433.331 339.647 433.331C340.873 433.331 341.866 432.338 341.866 431.112C341.866 430.658 341.866 430.204 341.866 429.751C341.866 429.278 342.25 428.894 342.723 428.894C343.196 428.894 343.58 429.278 343.58 429.751C343.58 430.206 343.58 430.659 343.58 431.112C343.58 432.338 344.573 433.331 345.798 433.331C346.255 433.331 346.711 433.331 347.165 433.331ZM347.165 361.944C347.639 361.944 348.024 362.323 348.024 362.797C348.024 363.271 347.639 363.662 347.165 363.662C346.709 363.662 346.254 363.662 345.798 363.662C344.573 363.662 343.58 364.655 343.58 365.88C343.58 366.334 343.58 366.788 343.58 367.242C343.58 367.715 343.202 368.098 342.729 368.098C342.255 368.098 341.866 367.715 341.866 367.242C341.866 366.787 341.866 366.333 341.866 365.88C341.866 364.655 340.873 363.662 339.647 363.662C339.192 363.662 338.737 363.662 338.281 363.662C337.806 363.662 337.422 363.277 337.422 362.803C337.422 362.329 337.806 361.944 338.281 361.944C338.736 361.944 339.19 361.944 339.644 361.944C340.871 361.944 341.866 360.95 341.866 359.722C341.866 359.265 341.866 358.808 341.866 358.349C341.866 357.876 342.25 357.492 342.723 357.492C343.196 357.492 343.58 357.876 343.58 358.349C343.58 358.808 343.58 359.265 343.58 359.722C343.58 360.95 344.575 361.944 345.802 361.944C346.257 361.944 346.712 361.944 347.165 361.944ZM347.165 290.543C347.639 290.543 348.024 290.922 348.024 291.396C348.024 291.87 347.639 292.26 347.165 292.26C346.71 292.26 346.256 292.26 345.802 292.26C344.575 292.26 343.58 293.255 343.58 294.482C343.58 294.939 343.58 295.397 343.58 295.855C343.58 296.329 343.202 296.712 342.729 296.712C342.255 296.712 341.866 296.329 341.866 295.855C341.866 295.397 341.866 294.939 341.866 294.482C341.866 293.255 340.871 292.26 339.644 292.26C339.19 292.26 338.736 292.26 338.281 292.26C337.806 292.26 337.422 291.881 337.422 291.407C337.422 290.933 337.806 290.543 338.281 290.543C338.736 290.543 339.19 290.543 339.644 290.543C340.871 290.543 341.866 289.548 341.866 288.321C341.866 287.864 341.866 287.406 341.866 286.948C341.866 286.475 342.25 286.091 342.723 286.091C343.196 286.091 343.58 286.475 343.58 286.948C343.58 287.406 343.58 287.864 343.58 288.321C343.58 289.548 344.575 290.543 345.802 290.543C346.257 290.543 346.712 290.543 347.165 290.543ZM347.165 219.141C347.639 219.141 348.024 219.526 348.024 220C348.024 220.474 347.639 220.858 347.165 220.858C346.71 220.858 346.256 220.858 345.802 220.858C344.575 220.858 343.58 221.853 343.58 223.08C343.58 223.538 343.58 223.995 343.58 224.454C343.58 224.927 343.202 225.311 342.729 225.311C342.255 225.311 341.866 224.927 341.866 224.454C341.866 223.995 341.866 223.538 341.866 223.08C341.866 221.853 340.871 220.858 339.644 220.858C339.19 220.858 338.736 220.858 338.281 220.858C337.806 220.858 337.422 220.48 337.422 220.006C337.422 219.532 337.806 219.141 338.281 219.141C338.736 219.141 339.19 219.141 339.644 219.141C340.871 219.141 341.866 218.147 341.866 216.92C341.866 216.462 341.866 216.005 341.866 215.546C341.866 215.073 342.25 214.689 342.723 214.689C343.196 214.689 343.58 215.073 343.58 215.546C343.58 216.005 343.58 216.462 343.58 216.92C343.58 218.147 344.575 219.141 345.802 219.141C346.257 219.141 346.712 219.141 347.165 219.141ZM347.165 147.74C347.639 147.74 348.024 148.124 348.024 148.598C348.024 149.073 347.639 149.457 347.165 149.457C346.71 149.457 346.256 149.457 345.802 149.457C344.575 149.457 343.58 150.452 343.58 151.679C343.58 152.136 343.58 152.594 343.58 153.052C343.58 153.525 343.202 153.909 342.729 153.909C342.255 153.909 341.866 153.525 341.866 153.052C341.866 152.594 341.866 152.136 341.866 151.679C341.866 150.452 340.871 149.457 339.644 149.457C339.19 149.457 338.736 149.457 338.281 149.457C337.806 149.457 337.422 149.078 337.422 148.604C337.422 148.13 337.806 147.74 338.281 147.74C338.737 147.74 339.192 147.74 339.648 147.74C340.873 147.74 341.866 146.747 341.866 145.521C341.866 145.067 341.866 144.613 341.866 144.16C341.866 143.687 342.25 143.303 342.723 143.303C343.196 143.303 343.58 143.687 343.58 144.16C343.58 144.615 343.58 145.069 343.58 145.521C343.58 146.747 344.573 147.74 345.798 147.74C346.255 147.74 346.711 147.74 347.165 147.74ZM347.165 76.3537C347.639 76.3537 348.024 76.7323 348.024 77.2065C348.024 77.6806 347.639 78.0707 347.165 78.0707C346.709 78.0707 346.254 78.0707 345.798 78.0707C344.573 78.0707 343.58 79.0639 343.58 80.2892C343.58 80.7436 343.58 81.1973 343.58 81.6507C343.58 82.124 343.202 82.5076 342.729 82.5076C342.255 82.5076 341.866 82.124 341.866 81.6507C341.866 81.1974 341.866 80.7433 341.866 80.2892C341.866 79.0639 340.873 78.0707 339.648 78.0707C339.192 78.0707 338.737 78.0707 338.281 78.0707C337.806 78.0707 337.422 77.6863 337.422 77.2122C337.422 76.738 337.806 76.3537 338.281 76.3537C338.736 76.3537 339.19 76.3537 339.644 76.3537C340.871 76.3537 341.866 75.3588 341.866 74.1317C341.866 73.6742 341.866 73.2168 341.866 72.7584C341.866 72.2852 342.25 71.9015 342.723 71.9015C343.196 71.9015 343.58 72.2852 343.58 72.7584C343.58 73.2168 343.58 73.6742 343.58 74.1317C343.58 75.3588 344.575 76.3537 345.802 76.3537C346.257 76.3537 346.712 76.3537 347.165 76.3537ZM431.403 433.331C431.878 433.331 432.262 433.715 432.262 434.189C432.262 434.663 431.878 435.048 431.403 435.048C430.948 435.048 430.494 435.048 430.04 435.048C428.813 435.048 427.818 436.043 427.818 437.27C427.818 437.727 427.818 438.185 427.818 438.643C427.818 439.116 427.434 439.5 426.961 439.5C426.488 439.5 426.104 439.116 426.104 438.643C426.104 438.185 426.104 437.727 426.104 437.27C426.104 436.043 425.109 435.048 423.882 435.048C423.428 435.048 422.974 435.048 422.519 435.048C422.044 435.048 421.66 434.669 421.66 434.195C421.66 433.721 422.044 433.331 422.519 433.331C422.975 433.331 423.43 433.331 423.886 433.331C425.111 433.331 426.104 432.338 426.104 431.112C426.104 430.658 426.104 430.204 426.104 429.751C426.104 429.278 426.482 428.894 426.955 428.894C427.429 428.894 427.818 429.278 427.818 429.751C427.818 430.206 427.818 430.659 427.818 431.112C427.818 432.338 428.811 433.331 430.036 433.331C430.493 433.331 430.949 433.331 431.403 433.331ZM431.403 361.944C431.878 361.944 432.262 362.323 432.262 362.797C432.262 363.271 431.878 363.662 431.403 363.662C430.947 363.662 430.492 363.662 430.036 363.662C428.811 363.662 427.818 364.655 427.818 365.88C427.818 366.334 427.818 366.788 427.818 367.242C427.818 367.715 427.434 368.098 426.961 368.098C426.488 368.098 426.104 367.715 426.104 367.242C426.104 366.787 426.104 366.333 426.104 365.88C426.104 364.655 425.111 363.662 423.886 363.662C423.43 363.662 422.975 363.662 422.519 363.662C422.044 363.662 421.66 363.277 421.66 362.803C421.66 362.329 422.044 361.944 422.519 361.944C422.974 361.944 423.428 361.944 423.882 361.944C425.109 361.944 426.104 360.95 426.104 359.722C426.104 359.265 426.104 358.808 426.104 358.349C426.104 357.876 426.482 357.492 426.955 357.492C427.429 357.492 427.818 357.876 427.818 358.349C427.818 358.808 427.818 359.265 427.818 359.722C427.818 360.95 428.813 361.944 430.04 361.944C430.495 361.944 430.95 361.944 431.403 361.944ZM431.403 290.543C431.878 290.543 432.262 290.922 432.262 291.396C432.262 291.87 431.878 292.26 431.403 292.26C430.948 292.26 430.494 292.26 430.04 292.26C428.813 292.26 427.818 293.255 427.818 294.482C427.818 294.939 427.818 295.397 427.818 295.855C427.818 296.329 427.434 296.712 426.961 296.712C426.488 296.712 426.104 296.329 426.104 295.855C426.104 295.397 426.104 294.939 426.104 294.482C426.104 293.255 425.109 292.26 423.882 292.26C423.428 292.26 422.974 292.26 422.519 292.26C422.044 292.26 421.66 291.881 421.66 291.407C421.66 290.933 422.044 290.543 422.519 290.543C422.974 290.543 423.428 290.543 423.882 290.543C425.109 290.543 426.104 289.548 426.104 288.321C426.104 287.864 426.104 287.406 426.104 286.948C426.104 286.475 426.482 286.091 426.955 286.091C427.429 286.091 427.818 286.475 427.818 286.948C427.818 287.406 427.818 287.864 427.818 288.321C427.818 289.548 428.813 290.543 430.04 290.543C430.495 290.543 430.95 290.543 431.403 290.543ZM431.403 219.141C431.878 219.141 432.262 219.526 432.262 220C432.262 220.474 431.878 220.859 431.403 220.859C430.948 220.859 430.494 220.859 430.04 220.859C428.813 220.859 427.818 221.853 427.818 223.08C427.818 223.538 427.818 223.995 427.818 224.454C427.818 224.927 427.434 225.311 426.961 225.311C426.488 225.311 426.104 224.927 426.104 224.454C426.104 223.995 426.104 223.538 426.104 223.08C426.104 221.853 425.109 220.859 423.882 220.859C423.428 220.859 422.974 220.859 422.519 220.859C422.044 220.859 421.66 220.48 421.66 220.006C421.66 219.532 422.044 219.141 422.519 219.141C422.974 219.141 423.428 219.141 423.882 219.141C425.109 219.141 426.104 218.147 426.104 216.92C426.104 216.462 426.104 216.005 426.104 215.546C426.104 215.073 426.482 214.689 426.955 214.689C427.429 214.689 427.818 215.073 427.818 215.546C427.818 216.005 427.818 216.462 427.818 216.92C427.818 218.147 428.813 219.141 430.04 219.141C430.495 219.141 430.95 219.141 431.403 219.141ZM431.403 147.74C431.878 147.74 432.262 148.124 432.262 148.598C432.262 149.073 431.878 149.457 431.403 149.457C430.948 149.457 430.494 149.457 430.04 149.457C428.813 149.457 427.818 150.452 427.818 151.679C427.818 152.136 427.818 152.594 427.818 153.052C427.818 153.525 427.434 153.909 426.961 153.909C426.488 153.909 426.104 153.525 426.104 153.052C426.104 152.594 426.104 152.136 426.104 151.679C426.104 150.452 425.109 149.457 423.882 149.457C423.428 149.457 422.974 149.457 422.519 149.457C422.044 149.457 421.66 149.078 421.66 148.604C421.66 148.13 422.044 147.74 422.519 147.74C422.975 147.74 423.43 147.74 423.886 147.74C425.111 147.74 426.104 146.747 426.104 145.521C426.104 145.067 426.104 144.613 426.104 144.16C426.104 143.687 426.482 143.303 426.955 143.303C427.429 143.303 427.818 143.687 427.818 144.16C427.818 144.615 427.818 145.069 427.818 145.521C427.818 146.747 428.811 147.74 430.036 147.74C430.493 147.74 430.949 147.74 431.403 147.74ZM431.403 76.3537C431.878 76.3537 432.262 76.7323 432.262 77.2065C432.262 77.6806 431.878 78.0707 431.403 78.0707C430.947 78.0707 430.492 78.0707 430.036 78.0707C428.811 78.0707 427.818 79.0639 427.818 80.2892C427.818 80.7436 427.818 81.1973 427.818 81.6507C427.818 82.124 427.434 82.5076 426.961 82.5076C426.488 82.5076 426.104 82.124 426.104 81.6507C426.104 81.1974 426.104 80.7433 426.104 80.2892C426.104 79.0639 425.111 78.0707 423.886 78.0707C423.43 78.0707 422.975 78.0707 422.519 78.0707C422.044 78.0707 421.66 77.6863 421.66 77.2122C421.66 76.738 422.044 76.3537 422.519 76.3537C422.974 76.3537 423.428 76.3537 423.882 76.3537C425.109 76.3537 426.104 75.3588 426.104 74.1317C426.104 73.6742 426.104 73.2168 426.104 72.7584C426.104 72.2852 426.482 71.9015 426.955 71.9015C427.429 71.9015 427.818 72.2852 427.818 72.7584C427.818 73.2168 427.818 73.6742 427.818 74.1317C427.818 75.3588 428.813 76.3537 430.04 76.3537C430.495 76.3537 430.95 76.3537 431.403 76.3537Z" fill="#494956"/>
</svg>
