<svg width="500" height="500" viewBox="0 0 500 500" fill="none" xmlns="http://www.w3.org/2000/svg">
    <circle cx="250" cy="249" r="198.5" fill="white" stroke="black"/>
    <circle cx="250" cy="253.835" r="29.8062" fill="white" stroke="black"/>
    <circle cx="250" cy="250" r="145.66" stroke="black"/>
    <circle cx="249.999" cy="250" r="114.203" stroke="black"/>
    <mask id="path-5-inside-1_966_1870" fill="white">
    <path d="M361.375 388.36C389.852 365.438 410.562 334.287 420.68 299.158C430.797 264.03 429.829 226.635 417.908 192.078C405.987 157.52 383.693 127.482 354.068 106.063C324.444 84.6445 288.932 72.8883 252.379 72.3987L251.113 166.937C268.209 167.166 284.817 172.664 298.673 182.682C312.528 192.699 322.954 206.748 328.53 222.91C334.105 239.072 334.558 256.562 329.826 272.991C325.094 289.42 315.408 303.989 302.09 314.71L361.375 388.36Z"/>
    </mask>
    <path d="M361.375 388.36C389.852 365.438 410.562 334.287 420.68 299.158C430.797 264.03 429.829 226.635 417.908 192.078C405.987 157.52 383.693 127.482 354.068 106.063C324.444 84.6445 288.932 72.8883 252.379 72.3987L251.113 166.937C268.209 167.166 284.817 172.664 298.673 182.682C312.528 192.699 322.954 206.748 328.53 222.91C334.105 239.072 334.558 256.562 329.826 272.991C325.094 289.42 315.408 303.989 302.09 314.71L361.375 388.36Z" fill="#D2C3FF" stroke="black" stroke-width="2" mask="url(#path-5-inside-1_966_1870)"/>
    <mask id="path-6-inside-2_966_1870" fill="white">
    <path d="M105.819 353.729C120.011 373.455 138.1 390.06 158.966 402.515C179.833 414.97 203.033 423.01 227.132 426.139C251.231 429.268 275.716 427.418 299.071 420.704C322.426 413.99 344.155 402.556 362.914 387.107L313.018 326.52C302.549 335.142 290.421 341.524 277.387 345.271C264.352 349.018 250.687 350.05 237.237 348.304C223.788 346.558 210.839 342.07 199.194 335.119C187.548 328.168 177.452 318.901 169.532 307.892L105.819 353.729Z"/>
    </mask>
    <path d="M105.819 353.729C120.011 373.455 138.1 390.06 158.966 402.515C179.833 414.97 203.033 423.01 227.132 426.139C251.231 429.268 275.716 427.418 299.071 420.704C322.426 413.99 344.155 402.556 362.914 387.107L313.018 326.52C302.549 335.142 290.421 341.524 277.387 345.271C264.352 349.018 250.687 350.05 237.237 348.304C223.788 346.558 210.839 342.07 199.194 335.119C187.548 328.168 177.452 318.901 169.532 307.892L105.819 353.729Z" fill="#987EFF" stroke="black" stroke-width="2" mask="url(#path-6-inside-2_966_1870)"/>
    <mask id="path-7-inside-3_966_1870" fill="white">
    <path d="M74.4325 223.095C67.3305 269.439 78.8402 316.711 106.452 354.603L157.95 317.077C140.244 292.779 132.863 262.465 137.417 232.747L74.4325 223.095Z"/>
    </mask>
    <path d="M74.4325 223.095C67.3305 269.439 78.8402 316.711 106.452 354.603L157.95 317.077C140.244 292.779 132.863 262.465 137.417 232.747L74.4325 223.095Z" fill="#6C9EFF" stroke="black" stroke-width="2" mask="url(#path-7-inside-3_966_1870)"/>
    <mask id="path-8-inside-4_966_1870" fill="white">
    <path d="M108.206 143.031C90.1883 166.915 78.4955 194.963 74.2125 224.572L122.442 231.549C125.55 210.063 134.035 189.71 147.109 172.379L108.206 143.031Z"/>
    </mask>
    <path d="M108.206 143.031C90.1883 166.915 78.4955 194.963 74.2125 224.572L122.442 231.549C125.55 210.063 134.035 189.71 147.109 172.379L108.206 143.031Z" fill="#F091FF" stroke="black" stroke-width="2" mask="url(#path-8-inside-4_966_1870)"/>
    <mask id="path-9-inside-5_966_1870" fill="white">
    <path d="M165.408 93.8207C142.359 106.305 122.359 123.735 106.843 144.862L132.805 163.929C145.507 146.634 161.88 132.364 180.749 122.144L165.408 93.8207Z"/>
    </mask>
    <path d="M165.408 93.8207C142.359 106.305 122.359 123.735 106.843 144.862L132.805 163.929C145.507 146.634 161.88 132.364 180.749 122.144L165.408 93.8207Z" fill="#FBA95D" stroke="black" stroke-width="2" mask="url(#path-9-inside-5_966_1870)"/>
    <mask id="path-10-inside-6_966_1870" fill="white">
    <path d="M216.793 75.5146C198.484 78.9992 180.836 85.344 164.5 94.316L176.721 116.57C190.723 108.88 205.847 103.443 221.54 100.456L216.793 75.5146Z"/>
    </mask>
    <path d="M216.793 75.5146C198.484 78.9992 180.836 85.344 164.5 94.316L176.721 116.57C190.723 108.88 205.847 103.443 221.54 100.456L216.793 75.5146Z" fill="#61DE9B" stroke="black" stroke-width="2" mask="url(#path-10-inside-6_966_1870)"/>
    <mask id="path-11-inside-7_966_1870" fill="white">
    <path d="M252.985 72.408C240.682 72.2012 228.392 73.2734 216.311 75.6072L219.563 92.4411C230.477 90.3326 241.582 89.3639 252.697 89.5507L252.985 72.408Z"/>
    </mask>
    <path d="M252.985 72.408C240.682 72.2012 228.392 73.2734 216.311 75.6072L219.563 92.4411C230.477 90.3326 241.582 89.3639 252.697 89.5507L252.985 72.408Z" fill="#865CFC" stroke="black" stroke-width="2" mask="url(#path-11-inside-7_966_1870)"/>
</svg>
