<svg width="1152" height="608" viewBox="0 0 1152 608" fill="none" xmlns="http://www.w3.org/2000/svg">
    <path d="M0 135.086C383.921 135.086 767.841 135.086 1152 135.086M0 67.6551C383.921 67.6551 767.841 67.6551 1152 67.6551H0ZM0 0H1152H0ZM0 608H1152H0ZM0 0V608V0ZM1151.76 0V608V0ZM1063.27 0C1063.27 202.741 1063.27 405.483 1063.27 608V0ZM974.55 0C974.55 202.741 974.55 405.483 974.55 608V0ZM886.062 0C886.062 202.741 886.062 405.483 886.062 608V0ZM797.337 0C797.337 202.741 797.337 405.483 797.337 608V0ZM708.85 0C708.85 202.741 708.85 405.483 708.85 608V0ZM620.125 0C620.125 202.741 620.125 405.483 620.125 608V0ZM531.637 0C531.637 202.741 531.637 405.483 531.637 608V0ZM442.912 0C442.912 202.741 442.912 405.483 442.912 608V0ZM354.425 0C354.425 202.741 354.425 405.483 354.425 608V0ZM265.7 0C265.7 202.741 265.7 405.483 265.7 608V0ZM177.212 0C177.212 202.741 177.212 405.483 177.212 608V0ZM88.4873 0C88.4873 202.741 88.4873 405.483 88.4873 608V0ZM0 540.569C383.921 540.569 767.841 540.569 1152 540.569H0ZM0 472.914C383.921 472.914 767.841 472.914 1152 472.914H0ZM0 405.483C383.921 405.483 767.841 405.483 1152 405.483H0ZM0 337.828C383.921 337.828 767.841 337.828 1152 337.828H0ZM0 270.172C383.921 270.172 767.841 270.172 1152 270.172H0ZM0 202.741C383.921 202.741 767.841 202.741 1152 202.741H0Z" stroke="#DBE1FD" stroke-miterlimit="10"/>
</svg>
