<svg width="550" height="617" viewBox="0 0 550 617" fill="none" xmlns="http://www.w3.org/2000/svg">
    <path fill-rule="evenodd" clip-rule="evenodd" d="M278.846 0C315.169 0 344.638 29.5225 344.638 65.9127C344.638 102.303 315.169 131.825 278.846 131.825C242.522 131.825 213.053 102.303 213.053 65.9127C213.053 29.5225 242.522 0 278.846 0ZM244.11 338.693H313.539C326.79 338.693 337.658 349.538 337.658 362.855V592.838C337.658 606.112 326.832 617 313.539 617H244.11C230.86 617 219.992 606.154 219.992 592.838V362.855C219.992 349.58 230.818 338.693 244.11 338.693ZM252.554 258.5L203.439 307.704C194.076 317.085 178.735 317.085 169.372 307.704L7.02234 145.058C-2.34078 135.678 -2.34078 120.31 7.02234 110.929L56.137 61.7251C65.5001 52.3449 80.8406 52.3449 90.2037 61.7251L252.554 224.371C261.917 233.751 261.917 249.12 252.554 258.5ZM346.561 304.522L297.446 255.318C288.083 245.937 288.083 230.569 297.446 221.189L459.796 58.5426C469.159 49.1623 484.5 49.1623 493.863 58.5426L542.978 107.747C552.341 117.127 552.341 132.495 542.978 141.876L380.628 304.522C371.265 313.902 355.924 313.902 346.561 304.522Z" fill="white"/>
</svg>
