<svg width="160" height="28" viewBox="0 0 160 28" fill="none" xmlns="http://www.w3.org/2000/svg">
    <path d="M143.039 11.2967H153.765C153.732 9.67932 153.235 8.36695 152.265 7.37805C151.296 6.38915 150.097 5.89008 148.671 5.89008C147.245 5.89008 146.112 6.37991 145.093 7.35032C144.074 8.32074 143.39 9.64236 143.047 11.2967M159.584 16.426H143.047C143.43 18.1173 144.197 19.4297 145.362 20.3447C146.519 21.2596 147.962 21.7217 149.674 21.7217C151.996 21.7217 154.189 20.8253 156.251 19.0231L158.916 23.9953C156.088 26.657 152.942 27.9971 149.478 27.9971C145.859 28.071 142.787 26.7309 140.26 23.9676C137.733 21.2134 136.503 17.8863 136.568 13.9954C136.503 10.1414 137.693 6.82353 140.146 4.05091C142.575 1.28753 145.501 -0.061814 148.899 0.00288048C152.143 0.00288048 154.8 1.19511 156.878 3.57032C158.957 5.94553 160 8.90299 160 12.4335C160 13.7273 159.853 15.0674 159.568 16.4353L159.584 16.426ZM131.303 0.603615H138.117L126.445 27.9971H124.302L112.622 0.603615H119.387L125.345 15.7329L131.303 0.603615ZM105.915 19.1894C107.072 17.8216 107.651 16.0933 107.651 14.0046C107.651 11.9159 107.072 10.1692 105.915 8.76436C104.757 7.35956 103.299 6.65717 101.554 6.65717C99.8102 6.65717 98.3106 7.35032 97.1695 8.73663C96.0285 10.1229 95.458 11.8789 95.458 14.0046C95.458 16.1303 96.0285 17.8216 97.1695 19.1894C98.3106 20.5572 99.7776 21.2411 101.554 21.2411C103.331 21.2411 104.757 20.5572 105.915 19.1894ZM88.9296 13.9492C88.8644 10.1322 90.087 6.83277 92.5972 4.06015C95.0994 1.28753 98.0905 -0.061814 101.546 0.00288048C105.01 -0.071056 108.001 1.27829 110.528 4.06015C113.054 6.83277 114.285 10.1322 114.22 13.9492C114.285 17.7661 113.046 21.0748 110.503 23.8659C107.961 26.657 104.961 28.0156 101.497 27.9416C98.0335 28.0156 95.0586 26.657 92.5646 23.8659C90.0707 21.0748 88.8563 17.7661 88.9215 13.9492H88.9296ZM87.1529 10.7606V27.3502H80.7223V11.7865C80.7223 10.1969 80.3392 8.93996 79.5813 8.00651C78.8151 7.07306 77.8045 6.60172 76.5331 6.60172C75.2616 6.60172 74.2184 7.07306 73.4115 8.00651C72.6046 8.93996 72.1971 10.1507 72.1971 11.6294V27.3502H65.7665V11.7865C65.7665 10.1969 65.3835 8.93996 64.6255 8.00651C63.8594 7.07306 62.8487 6.60172 61.5773 6.60172C60.3059 6.60172 59.23 7.07306 58.4313 8.00651C57.6407 8.93996 57.2414 10.2061 57.2414 11.7865V27.3502H50.8108V0.603615H56.7197V2.97883C58.3416 0.991781 60.5667 0.00288048 63.3622 0.00288048C66.443 0.00288048 68.7821 1.27829 70.3633 3.83834C72.3683 1.28753 74.9926 0.00288048 78.2365 0.00288048C80.9668 0.00288048 83.1348 0.973298 84.7404 2.92337C86.346 4.86421 87.1447 7.47971 87.1447 10.7606H87.1529ZM46.915 10.8161V27.3502H43.2473V11.2967C43.2473 9.20798 42.7339 7.51668 41.6988 6.21355C40.6637 4.91966 39.2619 4.27271 37.4851 4.27271C35.7083 4.27271 34.2413 4.9289 33.1002 6.24127C31.9592 7.55365 31.3887 9.2357 31.3887 11.2967V27.3502H27.7211V1.02875H31.1523V3.83834C32.9617 1.56479 35.3497 0.437258 38.3001 0.437258C40.9653 0.437258 43.0762 1.37995 44.6166 3.27457C46.157 5.1692 46.9313 7.68304 46.9313 10.8161H46.915ZM20.5488 14.2172C20.5488 11.4076 19.7501 9.05086 18.1445 7.13776C16.5389 5.22465 14.5502 4.27271 12.1622 4.27271C9.77416 4.27271 7.78549 5.21541 6.17989 7.11003C4.57429 9.00465 3.77556 11.3706 3.77556 14.2172C3.77556 17.0637 4.57429 19.328 6.17989 21.2134C7.78549 23.108 9.75786 24.0507 12.1133 24.0507C14.4687 24.0507 16.4574 23.0988 18.0956 21.1857C19.7338 19.2726 20.5488 16.9528 20.5488 14.2172ZM0.00198349 14.1617C-0.0550684 10.4187 1.12672 7.17472 3.5555 4.43907C5.98428 1.70342 8.85318 0.363321 12.154 0.437258C15.4875 0.363321 18.3645 1.69418 20.777 4.43907C23.1895 7.17472 24.3632 10.4187 24.3061 14.1617C24.3713 17.8678 23.1814 21.1025 20.7281 23.8567C18.283 26.6108 15.406 27.9509 12.1051 27.8862C8.80428 27.9601 5.94353 26.62 3.53105 23.8567C1.11857 21.1025 -0.0550684 17.877 0.00198349 14.1617Z" fill="#F7F7F7"/>
</svg>
