<svg width="130" height="47" viewBox="0 0 130 47" fill="none" xmlns="http://www.w3.org/2000/svg">
    <path fill-rule="evenodd" clip-rule="evenodd" d="M110.304 24.8995C112.272 24.8995 113.872 26.4807 113.872 28.4331C113.872 30.3855 112.275 31.9637 110.304 31.9637C108.333 31.9637 106.74 30.3825 106.74 28.4331C106.74 26.4838 108.336 24.8995 110.304 24.8995ZM90.6085 24.8995C92.5766 24.8995 94.1729 26.4807 94.1729 28.4331C94.1729 30.3855 92.5766 31.9637 90.6085 31.9637C88.6405 31.9637 87.0441 30.3825 87.0441 28.4331C87.0441 26.4838 88.6405 24.8995 90.6085 24.8995ZM90.6085 19.7033C95.4768 19.7033 99.4221 23.611 99.4221 28.4331C99.4221 33.2552 95.4768 37.163 90.6085 37.163C85.7402 37.163 81.7949 33.2552 81.7949 28.4331C81.7949 23.611 85.7402 19.7033 90.6085 19.7033ZM70.9128 24.8995C72.8808 24.8995 74.4772 26.4807 74.4772 28.4331C74.4772 30.3855 72.8808 31.9637 70.9128 31.9637C68.9447 31.9637 67.3453 30.3825 67.3453 28.4331C67.3453 26.4838 68.9417 24.8995 70.9128 24.8995ZM70.9128 19.7033C75.7811 19.7033 79.7263 23.611 79.7263 28.4331C79.7263 33.2552 75.7811 37.163 70.9128 37.163C66.0444 37.163 62.0992 33.2552 62.0992 28.4331C62.0992 23.611 66.0444 19.7033 70.9128 19.7033ZM54.7875 36.4146C53.6969 36.8944 52.4874 37.163 51.217 37.163C46.3487 37.163 42.4034 33.2552 42.4034 28.4331L42.4095 20.3219C42.4095 19.9809 42.6898 19.7033 43.0341 19.7033H47.0281C47.3723 19.7033 47.6526 19.9809 47.6526 20.3219V28.4331C47.6526 30.3825 49.249 31.9637 51.217 31.9637C53.1851 31.9637 54.7845 30.3825 54.7845 28.4331L54.7906 20.3219C54.7906 19.9809 55.0709 19.7033 55.4151 19.7033H59.4091C59.7534 19.7033 60.0336 19.9809 60.0336 20.3219V37.5794C60.0336 42.4015 56.0884 46.3092 51.2201 46.3092C46.3517 46.3092 42.7751 42.7545 42.4309 38.2433C42.4187 38.0652 42.4735 37.9083 42.5954 37.7755C42.7172 37.6458 42.8726 37.5794 43.0523 37.5794H47.0768C47.3875 37.5794 47.6465 37.7997 47.6922 38.1044C47.9481 39.8064 49.4287 41.11 51.2201 41.11C53.1881 41.11 54.7875 39.5287 54.7875 37.5764L54.7936 36.4146H54.7875ZM125.805 13.9487H121.811C121.467 13.9487 121.186 14.2263 121.186 14.5673V28.4331C121.186 33.0319 124.775 36.7978 129.33 37.1388C129.51 37.1509 129.668 37.0966 129.802 36.9759C129.933 36.8552 130 36.7013 130 36.5232V32.537C130 32.2292 129.778 31.9727 129.47 31.9275C127.752 31.674 126.436 30.2074 126.436 28.4331L126.429 14.5673C126.429 14.2263 126.149 13.9487 125.805 13.9487ZM110.304 19.7033C115.173 19.7033 119.118 23.611 119.118 28.4331C119.118 33.2552 115.173 37.163 110.304 37.163C109.034 37.163 107.824 36.8944 106.734 36.4146V42.2989C106.734 42.6399 106.453 42.9175 106.109 42.9175H102.115C101.771 42.9175 101.491 42.6399 101.491 42.2989V28.4331C101.491 23.611 105.436 19.7033 110.304 19.7033Z" fill="black"/>
    <path fill-rule="evenodd" clip-rule="evenodd" d="M20.3667 0C23.0198 0 25.1722 2.16242 25.1722 4.82788C25.1722 7.49334 23.0198 9.65576 20.3667 9.65576C17.7136 9.65576 15.5613 7.49334 15.5613 4.82788C15.5613 2.16242 17.7136 0 20.3667 0ZM17.8297 24.8081H22.9007C23.8685 24.8081 24.6623 25.6025 24.6623 26.5779V43.4233C24.6623 44.3956 23.8716 45.1931 22.9007 45.1931H17.8297C16.8618 45.1931 16.0681 44.3987 16.0681 43.4233V26.5779C16.0681 25.6056 16.8588 24.8081 17.8297 24.8081ZM18.4464 18.9342L14.8591 22.5383C14.1752 23.2254 13.0547 23.2254 12.3708 22.5383L0.512908 10.625C-0.170969 9.93795 -0.170969 8.81226 0.512908 8.12519L4.10021 4.52115C4.78409 3.83409 5.90455 3.83409 6.58842 4.52115L18.4464 16.4344C19.1302 17.1215 19.1302 18.2472 18.4464 18.9342ZM25.3126 22.3052L21.7253 18.7011C21.0414 18.0141 21.0414 16.8884 21.7253 16.2013L33.5833 4.28804C34.2671 3.60097 35.3876 3.60097 36.0715 4.28804L39.6588 7.89208C40.3426 8.57915 40.3426 9.70484 39.6588 10.3919L27.8008 22.3052C27.1169 22.9922 25.9965 22.9922 25.3126 22.3052Z" fill="black"/>
</svg>
