<svg width="133" height="23" viewBox="0 0 133 23" fill="none" xmlns="http://www.w3.org/2000/svg">
    <path d="M118.009 9.46332H126.858C126.831 8.1745 126.421 7.12872 125.621 6.34071C124.82 5.55269 123.832 5.155 122.655 5.155C121.478 5.155 120.544 5.54532 119.703 6.31861C118.863 7.0919 118.298 8.14504 118.016 9.46332M131.659 13.5507H118.016C118.332 14.8984 118.964 15.9442 119.925 16.6733C120.88 17.4024 122.07 17.7706 123.482 17.7706C125.399 17.7706 127.207 17.0563 128.909 15.6202L131.107 19.5823C128.774 21.7034 126.179 22.7712 123.321 22.7712C120.335 22.8301 117.8 21.7623 115.716 19.5602C113.632 17.3656 112.616 14.7143 112.67 11.6138C112.616 8.54274 113.598 5.89883 115.622 3.68943C117.626 1.48741 120.04 0.412169 122.843 0.463721C125.52 0.463721 127.712 1.41376 129.426 3.30647C131.141 5.19919 132.002 7.55587 132.002 10.3692C132.002 11.4002 131.881 12.4681 131.645 13.5581L131.659 13.5507ZM108.326 0.942423H113.948L104.319 22.7712H102.55L92.9147 0.942423H98.4956L103.411 12.9983L108.326 0.942423ZM87.3808 15.7527C88.3356 14.6628 88.813 13.2856 88.813 11.6212C88.813 9.95675 88.3356 8.56483 87.3808 7.4454C86.426 6.32598 85.2224 5.76626 83.7834 5.76626C82.3445 5.76626 81.1072 6.31861 80.1659 7.42331C79.2245 8.52801 78.7538 9.92729 78.7538 11.6212C78.7538 13.315 79.2245 14.6628 80.1659 15.7527C81.1072 16.8427 82.3176 17.3877 83.7834 17.3877C85.2493 17.3877 86.426 16.8427 87.3808 15.7527ZM73.3678 11.577C73.314 8.53537 74.3227 5.90619 76.3937 3.6968C78.458 1.48741 80.9257 0.412169 83.7767 0.463721C86.6344 0.404804 89.1021 1.48004 91.1866 3.6968C93.2711 5.90619 94.2864 8.53537 94.2326 11.577C94.2864 14.6186 93.2643 17.2551 91.1664 19.4792C89.0685 21.7034 86.5941 22.786 83.7363 22.727C80.8786 22.786 78.4243 21.7034 76.3668 19.4792C74.3092 17.2551 73.3073 14.6186 73.3611 11.577H73.3678ZM71.902 9.03617V22.2557H66.5967V9.85364C66.5967 8.58692 66.2807 7.58533 65.6553 6.8415C65.0233 6.09767 64.1895 5.72208 63.1406 5.72208C62.0916 5.72208 61.2309 6.09767 60.5652 6.8415C59.8996 7.58533 59.5634 8.5501 59.5634 9.72844V22.2557H54.2581V9.85364C54.2581 8.58692 53.942 7.58533 53.3167 6.8415C52.6846 6.09767 51.8509 5.72208 50.8019 5.72208C49.753 5.72208 48.8654 6.09767 48.2064 6.8415C47.5542 7.58533 47.2247 8.59429 47.2247 9.85364V22.2557H41.9194V0.942423H46.7944V2.83514C48.1325 1.25174 49.9681 0.463721 52.2745 0.463721C54.8162 0.463721 56.746 1.48004 58.0504 3.52005C59.7046 1.48741 61.8697 0.463721 64.5459 0.463721C66.7984 0.463721 68.587 1.23701 69.9117 2.79095C71.2363 4.33752 71.8953 6.42172 71.8953 9.03617H71.902ZM38.7053 9.08035V22.2557H35.6795V9.46332C35.6795 7.79891 35.2559 6.45118 34.4019 5.41276C33.548 4.38171 32.3914 3.86619 30.9256 3.86619C29.4597 3.86619 28.2494 4.38908 27.308 5.43485C26.3667 6.48063 25.896 7.821 25.896 9.46332V22.2557H22.8702V1.2812H25.701V3.52005C27.1937 1.70835 29.1639 0.809859 31.598 0.809859C33.7968 0.809859 35.5383 1.56105 36.8091 3.0708C38.08 4.58056 38.7188 6.58374 38.7188 9.08035H38.7053ZM16.953 11.7905C16.953 9.55169 16.294 7.67371 14.9694 6.14923C13.6448 4.62474 12.0041 3.86619 10.0339 3.86619C8.06378 3.86619 6.42311 4.61738 5.09847 6.12713C3.77383 7.63688 3.11488 9.52223 3.11488 11.7905C3.11488 14.0589 3.77383 15.8632 5.09847 17.3656C6.42311 18.8753 8.05033 19.6265 9.99359 19.6265C11.9368 19.6265 13.5775 18.868 14.929 17.3435C16.2806 15.819 16.953 13.9705 16.953 11.7905ZM0.0016364 11.7464C-0.045432 8.76367 0.929557 6.17868 2.93333 3.99875C4.9371 1.81882 7.30396 0.750942 10.0272 0.809859C12.7773 0.750942 15.1509 1.81145 17.1413 3.99875C19.1316 6.17868 20.0998 8.76367 20.0528 11.7464C20.1066 14.6996 19.1249 17.2772 17.1009 19.4719C15.0837 21.6665 12.7101 22.7344 9.98686 22.6828C7.26362 22.7418 4.90348 21.6739 2.91315 19.4719C0.922832 17.2772 -0.045432 14.7069 0.0016364 11.7464Z" fill="black"/>
</svg>
