<svg width="133" height="21" viewBox="0 0 133 21" fill="none" xmlns="http://www.w3.org/2000/svg">
    <path d="M118.009 8.07073H126.858C126.831 6.91523 126.421 5.97763 125.621 5.27112C124.82 4.56462 123.832 4.20807 122.655 4.20807C121.478 4.20807 120.544 4.55802 119.703 5.25132C118.863 5.94461 118.298 6.88882 118.016 8.07073M131.659 11.7353H118.016C118.332 12.9436 118.964 13.8812 119.925 14.5349C120.88 15.1886 122.07 15.5187 123.482 15.5187C125.399 15.5187 127.207 14.8783 128.909 13.5907L131.107 17.143C128.774 19.0446 126.179 20.0021 123.321 20.0021C120.335 20.0549 117.8 19.0975 115.716 17.1232C113.632 15.1556 112.616 12.7786 112.67 9.99876C112.616 7.24537 113.598 4.87495 115.622 2.8941C117.626 0.919853 120.04 -0.044162 122.843 0.00205791C125.52 0.00205791 127.712 0.853824 129.426 2.55075C131.141 4.24768 132.002 6.36059 132.002 8.88288C132.002 9.80727 131.881 10.7647 131.645 11.7419L131.659 11.7353ZM108.326 0.431242H113.948L104.319 20.0021H102.55L92.9147 0.431242H98.4956L103.411 11.2401L108.326 0.431242ZM87.3808 13.7096C88.3356 12.7323 88.813 11.4976 88.813 10.0054C88.813 8.51312 88.3356 7.26518 87.3808 6.26155C86.426 5.25792 85.2224 4.7561 83.7834 4.7561C82.3445 4.7561 81.1072 5.25132 80.1659 6.24174C79.2245 7.23217 78.7538 8.48671 78.7538 10.0054C78.7538 11.524 79.2245 12.7323 80.1659 13.7096C81.1072 14.6868 82.3176 15.1754 83.7834 15.1754C85.2493 15.1754 86.426 14.6868 87.3808 13.7096ZM73.3678 9.96574C73.314 7.23877 74.3227 4.88156 76.3937 2.9007C78.458 0.919852 80.9257 -0.044162 83.7767 0.00205791C86.6344 -0.0507648 89.1021 0.91325 91.1866 2.9007C93.2711 4.88156 94.2864 7.23877 94.2326 9.96574C94.2864 12.6927 93.2643 15.0565 91.1664 17.0506C89.0685 19.0446 86.5941 20.0153 83.7363 19.9624C80.8786 20.0153 78.4243 19.0446 76.3668 17.0506C74.3092 15.0565 73.3073 12.6927 73.3611 9.96574H73.3678ZM71.902 7.68776V19.5399H66.5967V8.42068C66.5967 7.28499 66.2807 6.387 65.6553 5.72012C65.0233 5.05323 64.1895 4.71649 63.1406 4.71649C62.0916 4.71649 61.2309 5.05323 60.5652 5.72012C59.8996 6.387 59.5634 7.25198 59.5634 8.30843V19.5399H54.2581V8.42068C54.2581 7.28499 53.942 6.387 53.3167 5.72012C52.6846 5.05323 51.8509 4.71649 50.8019 4.71649C49.753 4.71649 48.8654 5.05323 48.2064 5.72012C47.5542 6.387 47.2247 7.29159 47.2247 8.42068V19.5399H41.9194V0.431242H46.7944V2.12817C48.1325 0.708562 49.9681 0.00205791 52.2745 0.00205791C54.8162 0.00205791 56.746 0.91325 58.0504 2.74224C59.7046 0.919853 61.8697 0.00205791 64.5459 0.00205791C66.7984 0.00205791 68.587 0.695356 69.9117 2.08856C71.2363 3.47515 71.8953 5.34376 71.8953 7.68776H71.902ZM38.7053 7.72738V19.5399H35.6795V8.07073C35.6795 6.57849 35.2559 5.37017 34.4019 4.43917C33.548 3.51477 32.3914 3.05257 30.9256 3.05257C29.4597 3.05257 28.2494 3.52137 27.308 4.45897C26.3667 5.39658 25.896 6.59829 25.896 8.07073V19.5399H22.8702V0.734973H25.701V2.74224C27.1937 1.11794 29.1639 0.312391 31.598 0.312391C33.7968 0.312391 35.5383 0.985881 36.8091 2.33946C38.08 3.69304 38.7188 5.48902 38.7188 7.72738H38.7053ZM16.953 10.1572C16.953 8.14996 16.294 6.46624 14.9694 5.09945C13.6448 3.73266 12.0041 3.05257 10.0339 3.05257C8.06378 3.05257 6.42311 3.72606 5.09847 5.07964C3.77383 6.43322 3.11488 8.12355 3.11488 10.1572C3.11488 12.1909 3.77383 13.8086 5.09847 15.1556C6.42311 16.5092 8.05033 17.1826 9.99359 17.1826C11.9368 17.1826 13.5775 16.5026 14.929 15.1358C16.2806 13.769 16.953 12.1117 16.953 10.1572ZM0.0016364 10.1176C-0.045432 7.44346 0.929557 5.12586 2.93333 3.17142C4.9371 1.21698 7.30396 0.259569 10.0272 0.312391C12.7773 0.259569 15.1509 1.21038 17.1413 3.17142C19.1316 5.12586 20.0998 7.44346 20.0528 10.1176C20.1066 12.7653 19.1249 15.0763 17.1009 17.044C15.0837 19.0116 12.7101 19.969 9.98686 19.9228C7.26362 19.9756 4.90348 19.0182 2.91315 17.044C0.922832 15.0763 -0.045432 12.7719 0.0016364 10.1176Z" fill="white"/>
</svg>
