<svg width="131" height="47" viewBox="0 0 131 47" fill="none" xmlns="http://www.w3.org/2000/svg">
    <path fill-rule="evenodd" clip-rule="evenodd" d="M111.219 24.8995C113.187 24.8995 114.787 26.4807 114.787 28.4331C114.787 30.3855 113.19 31.9637 111.219 31.9637C109.248 31.9637 107.655 30.3825 107.655 28.4331C107.655 26.4838 109.251 24.8995 111.219 24.8995ZM91.5234 24.8995C93.4915 24.8995 95.0879 26.4807 95.0879 28.4331C95.0879 30.3855 93.4915 31.9637 91.5234 31.9637C89.5554 31.9637 87.959 30.3825 87.959 28.4331C87.959 26.4838 89.5554 24.8995 91.5234 24.8995ZM91.5234 19.7033C96.3918 19.7033 100.337 23.611 100.337 28.4331C100.337 33.2552 96.3918 37.163 91.5234 37.163C86.6551 37.163 82.7098 33.2552 82.7098 28.4331C82.7098 23.611 86.6551 19.7033 91.5234 19.7033ZM71.8277 24.8995C73.7957 24.8995 75.3921 26.4807 75.3921 28.4331C75.3921 30.3855 73.7957 31.9637 71.8277 31.9637C69.8596 31.9637 68.2602 30.3825 68.2602 28.4331C68.2602 26.4838 69.8566 24.8995 71.8277 24.8995ZM71.8277 19.7033C76.696 19.7033 80.6413 23.611 80.6413 28.4331C80.6413 33.2552 76.696 37.163 71.8277 37.163C66.9593 37.163 63.0141 33.2552 63.0141 28.4331C63.0141 23.611 66.9593 19.7033 71.8277 19.7033ZM55.7025 36.4146C54.6118 36.8944 53.4023 37.163 52.1319 37.163C47.2636 37.163 43.3184 33.2552 43.3184 28.4331L43.3244 20.3219C43.3244 19.9809 43.6047 19.7033 43.949 19.7033H47.943C48.2872 19.7033 48.5675 19.9809 48.5675 20.3219V28.4331C48.5675 30.3825 50.1639 31.9637 52.1319 31.9637C54.1 31.9637 55.6994 30.3825 55.6994 28.4331L55.7055 20.3219C55.7055 19.9809 55.9858 19.7033 56.33 19.7033H60.324C60.6683 19.7033 60.9486 19.9809 60.9486 20.3219V37.5794C60.9486 42.4015 57.0033 46.3092 52.135 46.3092C47.2666 46.3092 43.69 42.7545 43.3458 38.2433C43.3336 38.0652 43.3884 37.9083 43.5103 37.7755C43.6321 37.6458 43.7875 37.5794 43.9673 37.5794H47.9917C48.3025 37.5794 48.5614 37.7997 48.6071 38.1044C48.863 39.8064 50.3436 41.11 52.135 41.11C54.103 41.11 55.7025 39.5287 55.7025 37.5764L55.7086 36.4146H55.7025ZM126.72 13.9487H122.726C122.382 13.9487 122.101 14.2263 122.101 14.5673V28.4331C122.101 33.0319 125.69 36.7978 130.245 37.1388C130.424 37.1509 130.583 37.0966 130.717 36.9759C130.848 36.8552 130.915 36.7013 130.915 36.5232V32.537C130.915 32.2292 130.693 31.9727 130.385 31.9275C128.667 31.674 127.35 30.2074 127.35 28.4331L127.344 14.5673C127.344 14.2263 127.064 13.9487 126.72 13.9487ZM111.219 19.7033C116.088 19.7033 120.033 23.611 120.033 28.4331C120.033 33.2552 116.088 37.163 111.219 37.163C109.949 37.163 108.739 36.8944 107.649 36.4146V42.2989C107.649 42.6399 107.368 42.9175 107.024 42.9175H103.03C102.686 42.9175 102.406 42.6399 102.406 42.2989V28.4331C102.406 23.611 106.351 19.7033 111.219 19.7033Z" fill="url(#paint0_linear_1285_3278)"/>
    <path fill-rule="evenodd" clip-rule="evenodd" d="M21.2818 0C23.9348 0 26.0872 2.16242 26.0872 4.82788C26.0872 7.49334 23.9348 9.65576 21.2818 9.65576C18.6287 9.65576 16.4763 7.49334 16.4763 4.82788C16.4763 2.16242 18.6287 0 21.2818 0ZM18.7447 24.8081H23.8158C24.7836 24.8081 25.5774 25.6025 25.5774 26.5779V43.4233C25.5774 44.3956 24.7866 45.1931 23.8158 45.1931H18.7447C17.7769 45.1931 16.9831 44.3987 16.9831 43.4233V26.5779C16.9831 25.6056 17.7738 24.8081 18.7447 24.8081ZM19.3614 18.9342L15.7741 22.5383C15.0902 23.2254 13.9698 23.2254 13.2859 22.5383L1.42795 10.625C0.74407 9.93795 0.74407 8.81226 1.42795 8.12519L5.01525 4.52115C5.69913 3.83409 6.81959 3.83409 7.50346 4.52115L19.3614 16.4344C20.0453 17.1215 20.0453 18.2472 19.3614 18.9342ZM26.2277 22.3052L22.6404 18.7011C21.9565 18.0141 21.9565 16.8884 22.6404 16.2013L34.4983 4.28804C35.1822 3.60097 36.3026 3.60097 36.9865 4.28804L40.5738 7.89208C41.2577 8.57915 41.2577 9.70484 40.5738 10.3919L28.7159 22.3052C28.032 22.9922 26.9115 22.9922 26.2277 22.3052Z" fill="url(#paint1_linear_1285_3278)"/>
    <defs>
    <linearGradient id="paint0_linear_1285_3278" x1="58.7734" y1="56.4996" x2="113.824" y2="0.921447" gradientUnits="userSpaceOnUse">
    <stop stop-color="#C36CDB"/>
    <stop offset="1" stop-color="#7D53F1"/>
    </linearGradient>
    <linearGradient id="paint1_linear_1285_3278" x1="41.0867" y1="22.5966" x2="0.915039" y2="22.5966" gradientUnits="userSpaceOnUse">
    <stop stop-color="#C36CDB"/>
    <stop offset="1" stop-color="#7D53F1"/>
    </linearGradient>
    </defs>
</svg>
