<svg width="74" height="74" viewBox="0 0 74 74" fill="none" xmlns="http://www.w3.org/2000/svg">
    <path d="M12.8069 25.9644C6.66514 32.1061 6.66515 42.0638 12.8069 48.2055L25.8796 61.2782C32.0213 67.42 41.979 67.42 48.1207 61.2782L61.1934 48.2055C67.3352 42.0638 67.3351 32.1061 61.1934 25.9644L48.1207 12.8917C41.979 6.74996 32.0213 6.74996 25.8796 12.8917L12.8069 25.9644Z" stroke="white" stroke-width="16"/>
    <path d="M12.8069 25.9644C6.66514 32.1061 6.66515 42.0638 12.8069 48.2055L25.8796 61.2782C32.0213 67.42 41.979 67.42 48.1207 61.2782L61.1934 48.2055C67.3352 42.0638 67.3351 32.1061 61.1934 25.9644L48.1207 12.8917C41.979 6.74996 32.0213 6.74996 25.8796 12.8917L12.8069 25.9644Z" stroke="url(#paint0_linear_1263_2507)" stroke-opacity="0.1" stroke-width="16"/>
    <defs>
    <linearGradient id="paint0_linear_1263_2507" x1="9.75975" y1="42.5142" x2="49.0002" y2="49.085" gradientUnits="userSpaceOnUse">
    <stop stop-color="#4200FF"/>
    <stop offset="1" stop-color="#FF00C7"/>
    </linearGradient>
    </defs>
</svg>
