<svg width="32" height="35" viewBox="0 0 32 35" fill="none" xmlns="http://www.w3.org/2000/svg">
    <path fill-rule="evenodd" clip-rule="evenodd" d="M0.592041 2.67739C5.20023 0.956822 10.3233 0 15.7253 0C21.1272 0 26.2503 0.956822 30.8585 2.67739L28.7561 3.66853C24.6241 2.29122 20.209 1.59184 15.7253 1.59184C11.2415 1.59184 6.8264 2.29122 2.69447 3.66424L0.592041 2.67739Z" fill="url(#paint0_linear_764_3808)"/>
    <path fill-rule="evenodd" clip-rule="evenodd" d="M14.9959 34.5701L4.56958 28.044C0.424777 25.4524 0 23.7404 0 21.1703V3.77588L1.95226 4.69408V21.1703C1.95226 21.8139 1.97371 22.4918 2.15392 23.1226C2.60444 24.6844 4.26494 25.8514 5.75809 26.7868L14.9959 32.5664V34.5701Z" fill="url(#paint1_linear_764_3808)"/>
    <path fill-rule="evenodd" clip-rule="evenodd" d="M31.4505 3.77578V21.1702C31.4505 23.7403 31.0257 25.4523 26.8809 28.0439L16.4546 34.57V32.5662L25.6924 26.7867C27.1856 25.8513 28.8461 24.6843 29.2966 23.1225C29.4768 22.4917 29.4983 21.8138 29.4983 21.1702V4.68969L31.4505 3.77148V3.77578Z" fill="url(#paint2_linear_764_3808)"/>
    <path fill-rule="evenodd" clip-rule="evenodd" d="M27.8423 12.0095L21.5436 16.5662L18.9305 13.1336C19.9174 16.18 20.3465 17.4844 23.2126 26.2502L15.7254 20.7882L8.23817 26.2502C11.1043 17.4844 11.5377 16.18 12.5203 13.1293L9.90724 16.5619L3.60852 12.0052L12.8807 12.018C13.4642 10.2074 14.2837 7.67157 15.7254 3.20068C17.1671 7.67157 17.9866 10.2074 18.5701 12.018L27.8423 12.0052V12.0095Z" fill="url(#paint3_linear_764_3808)"/>
    <defs>
    <linearGradient id="paint0_linear_764_3808" x1="33.312" y1="-0.636713" x2="32.6967" y2="7.69539" gradientUnits="userSpaceOnUse">
    <stop offset="0.304898" stop-color="#618F71"/>
    <stop offset="1" stop-color="#F016BE"/>
    </linearGradient>
    <linearGradient id="paint1_linear_764_3808" x1="16.2115" y1="-1.56879" x2="-18.0849" y2="25.8425" gradientUnits="userSpaceOnUse">
    <stop offset="0.304898" stop-color="#618F71"/>
    <stop offset="1" stop-color="#F016BE"/>
    </linearGradient>
    <linearGradient id="paint2_linear_764_3808" x1="32.6661" y1="-1.57393" x2="-1.63408" y2="25.8365" gradientUnits="userSpaceOnUse">
    <stop offset="0.304898" stop-color="#618F71"/>
    <stop offset="1" stop-color="#F016BE"/>
    </linearGradient>
    <linearGradient id="paint3_linear_764_3808" x1="29.8067" y1="-0.79981" x2="6.97189" y2="38.6035" gradientUnits="userSpaceOnUse">
    <stop offset="0.304898" stop-color="#618F71"/>
    <stop offset="1" stop-color="#F016BE"/>
    </linearGradient>
    </defs>
</svg>
